<svg xmlns="http://www.w3.org/2000/svg" viewBox="0 0 500 150"><defs><style>.a{opacity:0.5;}.b{opacity:0.25;}.c{fill:#ffc920;}.d{fill:#ffe28f;}.e{fill:none;stroke:#000;stroke-linecap:round;stroke-linejoin:round;stroke-width:0.03px;}</style></defs><title>hivefivelogo</title><g class="a"><path d="M16.59,43.56v19H35v-19H46.21V93.09H35V72.36H16.59V93.09H5.35V43.56Z"/><path d="M67.22,43.56V93.09H56V43.56Z"/><path d="M88.6,93.09,72.73,43.56H85L91,64.5c1.69,5.88,3.23,11.54,4.41,17.71h.22c1.25-5.95,2.79-11.83,4.48-17.49l6.32-21.16h11.91L101.68,93.09Z"/><path d="M153.12,72.14H134.9V83.9h20.35v9.19h-31.6V43.56h30.57v9.18H134.9V63h18.22Z"/><path d="M162.89,43.56h30.28v9.18h-19V64.06h17.79v9.11H174.13V93.09H162.89Z"/><path d="M212.86,43.56V93.09H201.62V43.56Z"/><path d="M234.24,93.09,218.37,43.56h12.27l6,20.94c1.69,5.88,3.24,11.54,4.41,17.71h.22c1.25-5.95,2.8-11.83,4.49-17.49l6.32-21.16H264L247.32,93.09Z"/><path d="M298.76,72.14H280.53V83.9h20.36v9.19h-31.6V43.56h30.57v9.18H280.53V63h18.23Z"/><path d="M367.9,43.56h11.24V83.68h19.7v9.41H367.9Z"/><path d="M416.69,43.56V93.09H405.45V43.56Z"/><path d="M426.39,43.56h30.27v9.18h-19V64.06h17.78v9.11H437.63V93.09H426.39Z"/><path d="M494.58,72.14H476.35V83.9h20.36v9.19h-31.6V43.56h30.57v9.18H476.35V63h18.23Z"/></g><g class="a"><path d="M213.42,113.52V100.31h3.49l2.74,4.84a37.53,37.53,0,0,1,2.15,4.53h.06a50.64,50.64,0,0,1-.25-5.51v-3.86h2.74v13.21h-3.13l-2.83-5.1a50.4,50.4,0,0,1-2.29-4.66l-.06,0c.08,1.75.12,3.6.12,5.76v4Z"/><path d="M230,101.27a1.49,1.49,0,0,1-1.61,1.49,1.5,1.5,0,1,1,0-3A1.5,1.5,0,0,1,230,101.27Zm-3.08,12.25v-9.58h3v9.58Z"/><path d="M239.2,108h0c.22-.39.45-.78.69-1.15l1.94-2.88h3.58L242,107.82l3.92,5.7h-3.66L240,109.58l-.77.94v3h-3V99.61h3Z"/><path d="M255.88,110.44c0,1.26,0,2.27.08,3.08h-2.59l-.14-1.35h-.06a3.42,3.42,0,0,1-3,1.56c-1.94,0-3.37-1.21-3.37-4.17v-5.62h3v5.15c0,1.39.46,2.23,1.49,2.23a1.58,1.58,0,0,0,1.49-1,1.68,1.68,0,0,0,.1-.65v-5.7h3Z"/><path d="M258.27,107c0-1.19,0-2.21-.08-3h2.59l.13,1.31H261a3.51,3.51,0,0,1,3-1.53c2,0,3.43,1.3,3.43,4.12v5.68h-3v-5.31c0-1.24-.43-2.08-1.51-2.08a1.58,1.58,0,0,0-1.5,1.12,2,2,0,0,0-.12.74v5.53h-3Z"/><path d="M272,109.68c.1,1.23,1.32,1.82,2.71,1.82a8.53,8.53,0,0,0,2.64-.39l.4,2a9.52,9.52,0,0,1-3.47.58c-3.25,0-5.12-1.88-5.12-4.87,0-2.43,1.51-5.12,4.84-5.12,3.1,0,4.27,2.41,4.27,4.78a7.3,7.3,0,0,1-.09,1.18Zm3.51-2a1.73,1.73,0,0,0-1.68-1.94,2,2,0,0,0-1.84,1.94Z"/><path d="M293.34,99.61v11c0,1.07,0,2.21.08,2.86h-2.64l-.14-1.41h0a3.33,3.33,0,0,1-3,1.62c-2.27,0-4.09-1.94-4.09-4.91,0-3.24,2-5.1,4.29-5.1a2.93,2.93,0,0,1,2.53,1.08h0V99.61Zm-3,8.38a4.91,4.91,0,0,0,0-.53,1.8,1.8,0,0,0-1.75-1.47c-1.35,0-2.05,1.22-2.05,2.73s.8,2.64,2,2.64a1.75,1.75,0,0,0,1.73-1.43,2.44,2.44,0,0,0,.08-.68Z"/><path d="M305.2,108.62a4.8,4.8,0,0,1-5.06,5.11,4.69,4.69,0,0,1-4.95-4.93,4.78,4.78,0,0,1,5.11-5.08A4.66,4.66,0,0,1,305.2,108.62Zm-6.94.1c0,1.64.69,2.88,2,2.88s1.9-1.16,1.9-2.88c0-1.43-.55-2.88-1.9-2.88S298.26,107.31,298.26,108.72Z"/><path d="M307,107c0-1.19,0-2.21-.08-3h2.59l.14,1.31h.05a3.53,3.53,0,0,1,3-1.53c2,0,3.43,1.3,3.43,4.12v5.68h-3v-5.31c0-1.24-.43-2.08-1.51-2.08a1.58,1.58,0,0,0-1.5,1.12,2,2,0,0,0-.12.74v5.53h-3Z"/><path d="M324,113.52l-.18-1h-.06a3.44,3.44,0,0,1-2.74,1.17,2.93,2.93,0,0,1-3.09-2.94c0-2.48,2.23-3.68,5.62-3.66V107c0-.51-.27-1.23-1.74-1.23a5.44,5.44,0,0,0-2.65.72l-.55-1.92a8,8,0,0,1,3.72-.84c3.2,0,4.22,1.88,4.22,4.14v3.33a16,16,0,0,0,.13,2.33Zm-.35-4.53c-1.57,0-2.79.36-2.79,1.51a1.07,1.07,0,0,0,1.18,1.14,1.64,1.64,0,0,0,1.55-1.1,2.1,2.1,0,0,0,.06-.51Z"/><path d="M328.85,110.91a5.76,5.76,0,0,0,2.57.73c.9,0,1.27-.32,1.27-.81s-.29-.72-1.41-1.09c-2-.67-2.74-1.75-2.72-2.88,0-1.79,1.52-3.14,3.9-3.14a6.5,6.5,0,0,1,2.7.55l-.53,2.06a4.62,4.62,0,0,0-2.08-.55c-.72,0-1.13.29-1.13.78s.37.69,1.54,1.1c1.83.63,2.59,1.55,2.61,3,0,1.78-1.41,3.09-4.15,3.09a6.83,6.83,0,0,1-3.1-.66Z"/><path d="M341.33,107c0-1.19,0-2.21-.08-3h2.51l.14,1.29H344a3.31,3.31,0,0,1,2.9-1.51,2.71,2.71,0,0,1,2.62,1.63h0a4.25,4.25,0,0,1,1.24-1.16,3.47,3.47,0,0,1,1.82-.47c1.84,0,3.23,1.3,3.23,4.16v5.64h-2.9v-5.21c0-1.39-.45-2.2-1.41-2.2a1.45,1.45,0,0,0-1.37,1,2.46,2.46,0,0,0-.12.76v5.61h-2.9v-5.37c0-1.21-.43-2-1.37-2a1.52,1.52,0,0,0-1.39,1.08,2,2,0,0,0-.12.74v5.59h-2.9Z"/><path d="M367.22,110.44c0,1.26,0,2.27.07,3.08h-2.58l-.14-1.35h-.06a3.42,3.42,0,0,1-3,1.56c-1.94,0-3.37-1.21-3.37-4.17v-5.62h3v5.15c0,1.39.45,2.23,1.49,2.23a1.61,1.61,0,0,0,1.49-1,1.68,1.68,0,0,0,.1-.65v-5.7h3Z"/><path d="M369.61,99.61h3v13.91h-3Z"/><path d="M378.33,101.2v2.74h2.13v2.19h-2.13v3.47c0,1.16.27,1.69,1.17,1.69a4.72,4.72,0,0,0,.88-.08l0,2.25a5.74,5.74,0,0,1-1.94.25,3.09,3.09,0,0,1-2.23-.82,4,4,0,0,1-.82-2.84v-3.92h-1.28v-2.19h1.28v-2.08Z"/><path d="M387.63,113.52l-.17-1h-.06a3.47,3.47,0,0,1-2.74,1.17,2.93,2.93,0,0,1-3.1-2.94c0-2.48,2.23-3.68,5.62-3.66V107c0-.51-.27-1.23-1.74-1.23a5.44,5.44,0,0,0-2.65.72l-.54-1.92a7.89,7.89,0,0,1,3.72-.84c3.19,0,4.21,1.88,4.21,4.14v3.33a14.54,14.54,0,0,0,.14,2.33Zm-.35-4.53c-1.57,0-2.78.36-2.78,1.51a1.07,1.07,0,0,0,1.17,1.14,1.62,1.62,0,0,0,1.55-1.1,2.1,2.1,0,0,0,.06-.51Z"/><path d="M390.55,115.28a2.63,2.63,0,0,0,1.77-.63c.43-.45.58-1.21.58-3.11v-7.6h3v8.3c0,2.1-.47,3.38-1.35,4.2a5.46,5.46,0,0,1-3.7,1.17Zm5.43-14a1.48,1.48,0,0,1-1.61,1.49,1.5,1.5,0,1,1,0-3A1.48,1.48,0,0,1,396,101.27Z"/><path d="M398.23,107c0-1.19,0-2.21-.07-3h2.58l.14,1.31h.06a3.5,3.5,0,0,1,3-1.53c2,0,3.43,1.3,3.43,4.12v5.68h-3v-5.31c0-1.24-.43-2.08-1.51-2.08a1.6,1.6,0,0,0-1.51,1.12,2,2,0,0,0-.12.74v5.53h-3Z"/><path d="M423,99.61v11c0,1.07,0,2.21.08,2.86h-2.65l-.13-1.41h0a3.33,3.33,0,0,1-3,1.62c-2.27,0-4.09-1.94-4.09-4.91,0-3.24,2-5.1,4.29-5.1a2.9,2.9,0,0,1,2.52,1.08h0V99.61ZM420,108a4.91,4.91,0,0,0,0-.53A1.78,1.78,0,0,0,418.2,106c-1.35,0-2.06,1.22-2.06,2.73s.81,2.64,2,2.64a1.75,1.75,0,0,0,1.73-1.43,2.9,2.9,0,0,0,.07-.68Z"/><path d="M434.82,108.62a4.8,4.8,0,0,1-5.06,5.11,4.69,4.69,0,0,1-5-4.93,4.79,4.79,0,0,1,5.12-5.08A4.66,4.66,0,0,1,434.82,108.62Zm-6.94.1c0,1.64.69,2.88,2,2.88s1.9-1.16,1.9-2.88c0-1.43-.55-2.88-1.9-2.88S427.88,107.31,427.88,108.72Z"/><path d="M436.66,107c0-1.19,0-2.21-.08-3h2.59l.13,1.31h.06a3.53,3.53,0,0,1,3-1.53c2,0,3.43,1.3,3.43,4.12v5.68h-3v-5.31c0-1.24-.43-2.08-1.51-2.08a1.58,1.58,0,0,0-1.5,1.12,2,2,0,0,0-.12.74v5.53h-3Z"/><path d="M453.59,113.52l-.18-1h-.06a3.44,3.44,0,0,1-2.74,1.17,2.93,2.93,0,0,1-3.09-2.94c0-2.48,2.23-3.68,5.62-3.66V107c0-.51-.28-1.23-1.75-1.23a5.43,5.43,0,0,0-2.64.72l-.55-1.92a8,8,0,0,1,3.72-.84c3.2,0,4.22,1.88,4.22,4.14v3.33a14.73,14.73,0,0,0,.13,2.33Zm-.35-4.53c-1.57,0-2.79.36-2.79,1.51a1.07,1.07,0,0,0,1.18,1.14,1.64,1.64,0,0,0,1.55-1.1,2.1,2.1,0,0,0,.06-.51Z"/><path d="M465.68,113.28a7.19,7.19,0,0,1-2.67.43c-3.09,0-5.07-1.88-5.07-4.89,0-2.81,1.92-5.1,5.49-5.1a7.06,7.06,0,0,1,2.27.37l-.47,2.22a4,4,0,0,0-1.67-.3,2.69,2.69,0,0,0,.06,5.37,4.54,4.54,0,0,0,1.71-.29Z"/><path d="M476.57,108.62a4.8,4.8,0,0,1-5.05,5.11,4.69,4.69,0,0,1-5-4.93,4.78,4.78,0,0,1,5.11-5.08A4.66,4.66,0,0,1,476.57,108.62Zm-6.93.1c0,1.64.68,2.88,2,2.88s1.9-1.16,1.9-2.88c0-1.43-.55-2.88-1.9-2.88S469.64,107.31,469.64,108.72Z"/><path d="M476.44,115.28a2.6,2.6,0,0,0,1.76-.63c.43-.45.59-1.21.59-3.11v-7.6h3v8.3c0,2.1-.47,3.38-1.36,4.2a5.46,5.46,0,0,1-3.7,1.17Zm5.42-14a1.58,1.58,0,1,1-1.56-1.51A1.48,1.48,0,0,1,481.86,101.27Z"/><path d="M484.12,107c0-1.19,0-2.21-.08-3h2.59l.13,1.31h.06a3.5,3.5,0,0,1,3-1.53c2,0,3.43,1.3,3.43,4.12v5.68h-3v-5.31c0-1.24-.43-2.08-1.51-2.08a1.6,1.6,0,0,0-1.51,1.12,2,2,0,0,0-.11.74v5.53h-3Z"/><path d="M495.38,111.93a1.73,1.73,0,0,1,1.77-1.82,1.81,1.81,0,0,1,0,3.62A1.72,1.72,0,0,1,495.38,111.93Z"/></g><g class="b"><path class="c" d="M341.93,70a11.78,11.78,0,0,1-9.42-9.48,10.48,10.48,0,0,1,4.32,0,6.45,6.45,0,0,1,5,4.68,10,10,0,0,1,.12,4.56A2.38,2.38,0,0,1,341.93,70Z"/><path class="c" d="M326.74,84.22a11.27,11.27,0,0,1-8.52-8.59,10.39,10.39,0,0,1,.18-1.07,11.73,11.73,0,0,1,9.39,9.5C327.44,84.13,327.09,84.18,326.74,84.22Z"/><path d="M349.56,57.21a.79.79,0,0,1,1.37-.78h1.22a.5.5,0,0,1,.71.68.5.5,0,0,1-.7.1h-1.23a.78.78,0,0,1-.29.28A.79.79,0,0,1,349.56,57.21Z"/><path class="d" d="M353.27,51.61a.48.48,0,0,1,0-.67h0l1.06-1h0a7.32,7.32,0,0,1,.52.8h0l-.92.92h0A.48.48,0,0,1,353.27,51.61Z"/><polygon points="343.57 59.02 343.73 55.83 346.75 58.88 343.57 59.02"/><path d="M332.51,60.56A11.78,11.78,0,0,0,341.93,70a2.38,2.38,0,0,0,.05-.26,10,10,0,0,0-.12-4.56,6.45,6.45,0,0,0-5-4.68A10.48,10.48,0,0,0,332.51,60.56Zm-3,.95a18.51,18.51,0,0,0-2.55,1.36c-.42.27-.84.56-1.25.86a33.76,33.76,0,0,0,13,13.12,19,19,0,0,0,2.26-3.8A14.91,14.91,0,0,1,329.49,61.51Zm1.42,23.26a12.58,12.58,0,1,0,13.48-11.61,13.07,13.07,0,0,0-1.77,0A21.61,21.61,0,0,1,330.91,84.77ZM304.33,58a12.57,12.57,0,0,0,11.61,13.48,11.62,11.62,0,0,0,1.77,0,21.58,21.58,0,0,1,11.71-11.62A12.58,12.58,0,0,0,304.33,58Zm18.94,7.89c-.32.33-.64.67-.94,1a19.82,19.82,0,0,0-3,4.67h0a14.91,14.91,0,0,1,11.44,11.56l.31-.14a19.6,19.6,0,0,0,5-3.31l.44-.41A37.08,37.08,0,0,1,323.27,65.86Zm-5,9.77a11.27,11.27,0,0,0,8.52,8.59c.35,0,.7-.09,1.05-.16a11.73,11.73,0,0,0-9.39-9.5A10.39,10.39,0,0,0,318.22,75.63Zm9.5,10a10.24,10.24,0,0,1-7.65-1.39L306.71,95.56,318.1,82.3a10.25,10.25,0,0,1-1.32-7.67A15.73,15.73,0,1,1,332.6,58.94c3.66-.62,6.7.28,8.68,2.25a.47.47,0,0,1,.1.1h0c1.93,2,2.8,5,2.15,8.68a15.73,15.73,0,1,1-15.83,15.69Z"/><path d="M351.06,48.71a.45.45,0,0,0,0,.66.46.46,0,0,0,.66,0h0l1.05-1v0a7.39,7.39,0,0,0-.8-.53h0l-.92.91Zm2,2,1.08-1.08h0a8.32,8.32,0,0,0-1.1-1.12h0L352,49.6h0a.78.78,0,0,1-1.1-1.12h0l.86-.85h0A7.88,7.88,0,1,0,355,51l-.85.85h0a.78.78,0,0,1-1.11-1.11Zm1.81,0h0a7.32,7.32,0,0,0-.52-.8h0l-1.06,1h0a.47.47,0,0,0,.67.67h0ZM357,48.12v0l-1.17,1.16a9.44,9.44,0,0,1-13.19,13.05,9.88,9.88,0,0,1-1.26-1.05h0a.47.47,0,0,0-.1-.1,9.44,9.44,0,0,1,12.11-14.37l1.17-1.16h0l-1-7.44a.31.31,0,0,1-.13-.1.32.32,0,0,1,.06-.44.31.31,0,0,1,.38.5l1,7.57h0L353.65,47h0a9.43,9.43,0,0,1,2,2l1.24-1.23h0l7.59,1.11a.31.31,0,1,1-.05.31Z"/><path class="c" d="M329.49,61.51A14.91,14.91,0,0,0,341,73.05a19,19,0,0,1-2.26,3.8,33.76,33.76,0,0,1-13-13.12c.41-.3.83-.59,1.25-.86A18.51,18.51,0,0,1,329.49,61.51Z"/><path class="d" d="M351.06,49.37a.45.45,0,0,1,0-.66h0l.92-.91h0a7.39,7.39,0,0,1,.8.53v0l-1.05,1h0A.46.46,0,0,1,351.06,49.37Z"/><path class="c" d="M345.43,50.43v1.24a.79.79,0,0,0-.3,1.07.79.79,0,1,0,1.08-1.07V50.45a.5.5,0,0,0-.77-.63A.5.5,0,0,0,345.43,50.43Zm-1.7,5.4L343.57,59l3.18-.13Zm7.2.6a.79.79,0,0,0-1.37.78.79.79,0,0,0,1.08.29.78.78,0,0,0,.29-.28h1.23a.5.5,0,0,0,.7-.1.5.5,0,0,0-.71-.68Zm3.21-6.79-1.08,1.08h0a.78.78,0,0,0,1.11,1.11h0L355,51a7.86,7.86,0,1,1-3.32-3.36h0l-.86.85h0a.78.78,0,0,0,1.1,1.12h0L353,48.52h0a8.32,8.32,0,0,1,1.1,1.12Z"/><path d="M345.13,52.74a.79.79,0,0,1,.3-1.07V50.43a.5.5,0,0,1,0-.61.5.5,0,0,1,.77.63v1.22a.79.79,0,1,1-1.08,1.07Z"/><path class="c" d="M319.37,71.55a19.82,19.82,0,0,1,3-4.67c.3-.35.62-.69.94-1a37.08,37.08,0,0,0,13.29,13.39l-.44.41a19.6,19.6,0,0,1-5,3.31l-.31.14a14.91,14.91,0,0,0-11.44-11.56Z"/><path class="e" d="M316.78,74.63a10.25,10.25,0,0,0,1.32,7.67"/><path class="e" d="M320.07,84.28a10.24,10.24,0,0,0,7.65,1.39"/><path class="e" d="M330.91,84.77a21.61,21.61,0,0,0,11.71-11.62"/><path class="e" d="M341.38,61.29a.47.47,0,0,0-.1-.1c-2-2-5-2.87-8.68-2.25"/><path class="e" d="M343.55,70c.65-3.64-.22-6.68-2.15-8.68"/><path class="e" d="M329.42,59.84a21.58,21.58,0,0,0-11.71,11.62"/><path class="e" d="M318.4,74.56a10.39,10.39,0,0,0-.18,1.07"/><path class="e" d="M326.74,84.22c.35,0,.7-.09,1.05-.16"/><path class="e" d="M330.82,83.11l.31-.14a19.6,19.6,0,0,0,5-3.31l.44-.41"/><path class="e" d="M338.7,76.85a19,19,0,0,0,2.26-3.8"/><path class="e" d="M341.93,70a2.38,2.38,0,0,0,.05-.26,10,10,0,0,0-.12-4.56,6.45,6.45,0,0,0-5-4.68,10.48,10.48,0,0,0-4.32,0"/><path class="e" d="M329.49,61.51a18.51,18.51,0,0,0-2.55,1.36c-.42.27-.84.56-1.25.86"/><path class="e" d="M323.27,65.86c-.32.33-.64.67-.94,1a19.82,19.82,0,0,0-3,4.67"/><path class="e" d="M353.4,46.82h0a9.44,9.44,0,0,0-12.11,14.37.47.47,0,0,1,.1.1h0a9.88,9.88,0,0,0,1.26,1.05A9.44,9.44,0,0,0,355.85,49.3h0"/><path class="e" d="M355.65,49h0a9.43,9.43,0,0,0-2-2"/><path class="e" d="M352.78,48.32a7.39,7.39,0,0,0-.8-.53"/><path class="e" d="M351.7,47.63A7.88,7.88,0,1,0,355,51h0"/><path class="e" d="M354.86,50.69a7.32,7.32,0,0,0-.52-.8"/><path class="e" d="M354.14,49.64a8.32,8.32,0,0,0-1.1-1.12h0"/><path class="e" d="M332.51,60.56A11.78,11.78,0,0,0,341.93,70"/><path class="e" d="M329.49,61.51A14.91,14.91,0,0,0,341,73.05"/><path class="e" d="M350.84,48.48a.78.78,0,0,0,1.1,1.12"/><path class="e" d="M351.06,48.71a.45.45,0,0,0,0,.66.46.46,0,0,0,.66,0"/><line class="e" x1="306.71" y1="95.56" x2="318.1" y2="82.3"/><line class="e" x1="306.71" y1="95.56" x2="320.07" y2="84.28"/><path class="e" d="M332.6,58.94a15.73,15.73,0,1,0-15.82,15.69"/><path class="e" d="M329.42,59.84a12.58,12.58,0,1,0-13.48,11.61,11.62,11.62,0,0,0,1.77,0"/><path class="e" d="M327.79,84.06h0a11.73,11.73,0,0,0-9.39-9.5h0"/><path class="e" d="M330.82,83.11a14.91,14.91,0,0,0-11.44-11.56"/><path class="e" d="M327.72,85.67A15.73,15.73,0,1,0,343.55,70"/><path class="e" d="M330.91,84.77a12.58,12.58,0,1,0,13.48-11.61,13.07,13.07,0,0,0-1.77,0"/><path class="e" d="M325.69,63.73a33.76,33.76,0,0,0,13,13.12"/><path class="e" d="M323.27,65.86a37.08,37.08,0,0,0,13.29,13.39"/><path class="e" d="M318.22,75.63a11.27,11.27,0,0,0,8.52,8.59"/><line class="e" x1="319.37" y1="71.55" x2="319.38" y2="71.55"/><path class="e" d="M350.93,56.43a.79.79,0,0,0-1.37.78.79.79,0,0,0,1.08.29.78.78,0,0,0,.29-.28"/><line class="e" x1="350.93" y1="56.43" x2="352.15" y2="56.44"/><line class="e" x1="352.16" y1="57.22" x2="350.93" y2="57.22"/><path class="e" d="M352.16,57.22a.5.5,0,0,0,.7-.1.5.5,0,0,0-.71-.68"/><path class="e" d="M345.43,51.67a.79.79,0,0,0-.3,1.07.79.79,0,1,0,1.08-1.07"/><line class="e" x1="346.21" y1="51.67" x2="346.22" y2="50.45"/><line class="e" x1="345.43" y1="50.43" x2="345.43" y2="51.67"/><path class="e" d="M346.22,50.45a.5.5,0,0,0-.77-.63.5.5,0,0,0,0,.61"/><polyline class="e" points="350.84 48.48 351.7 47.63 351.71 47.62"/><polyline class="e" points="351.06 48.7 351.98 47.79 351.99 47.78"/><line class="e" x1="351.95" y1="49.6" x2="353.04" y2="48.52"/><line class="e" x1="351.74" y1="49.38" x2="352.79" y2="48.34"/><path class="e" d="M353.05,50.72a.78.78,0,0,0,1.11,1.11"/><path class="e" d="M353.27,50.94a.47.47,0,0,0,.67.67"/><polyline class="e" points="354.17 51.84 355.02 50.99 355.03 50.97"/><polyline class="e" points="353.95 51.62 354.87 50.7 354.88 50.7"/><line class="e" x1="353.06" y1="50.72" x2="354.14" y2="49.64"/><line class="e" x1="353.27" y1="50.94" x2="354.33" y2="49.89"/><polygon class="e" points="343.57 59.02 346.75 58.88 343.73 55.83 343.57 59.02"/><polyline class="e" points="353.38 46.83 353.39 46.82 354.56 45.66"/><polyline class="e" points="353.63 47.01 353.64 47 354.9 45.75"/><polyline class="e" points="354.57 45.66 354.57 45.66 353.54 38.22"/><polyline class="e" points="354.9 45.77 354.9 45.75 353.85 38.18"/><path class="e" d="M353.85,38.18a.31.31,0,0,0-.38-.5.32.32,0,0,0-.06.44.31.31,0,0,0,.13.1"/><polyline class="e" points="355.84 49.31 355.85 49.3 357.02 48.14"/><polyline class="e" points="355.63 49.03 355.65 49.01 356.89 47.78 356.9 47.77"/><polyline class="e" points="357.01 48.12 357.03 48.12 364.44 49.21"/><line class="e" x1="356.9" y1="47.79" x2="364.49" y2="48.9"/><path class="e" d="M364.44,49.21a.33.33,0,1,0,.05-.31"/></g></svg>