<svg xmlns="http://www.w3.org/2000/svg" viewBox="0 0 792 792">
    <defs>
        <style>
            .a{fill:#ffc920;}.b{
                fill:#362a0b;
            }
            
            .c{
                fill:none;
                stroke:#ffc920;
                stroke-linecap:square;
                stroke-miterlimit:10;
                stroke-width:20px;
            }
        </style>
    </defs>
    <title>hivefivelogo - 02-10-2018</title>
    <polygon class="a" points="115.41 234 115.41 558 396 720 676.59 558 676.59 234 396 72 115.41 234"/>
    <polygon class="a" points="154.08 535.67 154.08 256.33 396 116.66 637.92 256.33 637.92 535.67 396 675.34 154.08 535.67"/>
    <path class="b" d="M396,125.32,630.42,260.66V531.34L396,666.68,161.58,531.34V260.66L396,125.32M396,108,146.58,252V540L396,684,645.42,540V252L396,108Z"/>
    <polygon class="a" points="182.76 519.11 182.76 272.89 396 149.77 609.24 272.89 609.24 519.11 396 642.23 182.76 519.11"/>
    <path class="b" d="M396,155.55,604.24,275.77V516.23L396,636.45,187.76,516.23V275.77L396,155.55M396,144,177.76,270V522L396,648,614.24,522V270L396,144Z"/>
    <polyline class="c" points="200.28 158 92.03 220.5 92.03 345.5"/>
    <polyline class="c" points="92.03 446.5 92.03 571.5 200.28 634"/>
    <polyline class="c" points="287.75 684.5 396 747 504.25 684.5"/>
    <polyline class="c" points="591.72 634 699.98 571.5 699.98 446.5"/>
    <polyline class="c" points="699.98 345.5 699.98 220.5 591.72 158"/>
    <polyline class="c" points="504.25 107.5 396 45 287.75 107.5"/>
    <path class="b" d="M359.16,384.45V402c0,6.6,0,15.6.15,22.95l7.5,1.5v7.05H327.36v-7.05l7.8-1.65c.15-7.35.15-16.35.15-22.8V386.25c0-9.75-1.95-13.05-8.1-13.05-4,0-8.7,2.55-13.35,6.9V402c0,6.3,0,15.6.15,22.95l7.05,1.5v7.05H281.61v-7.05l8.1-1.8c.15-7.2.15-16.35.15-22.65V339.15l-9.3-1.5v-6.3l31.05-6.75,2.4,1.5-.6,21v24.15c8.1-9.3,15.15-12.6,23.85-12.6C350.46,358.65,359.16,367.2,359.16,384.45Z"/>
    <path class="b" d="M383,321h14.7V471H383Z"/>
    <path class="b" d="M427.26,381.45c0-12.3,0-24.9-.3-37.2l-11.25-1.2V335h77.54l1.05,25.8H481.85l-3-17.4h-26.1c-.3,11.4-.3,23.1-.3,34.8H469.1l1.8-11.7h8.7V400.2h-8.7L469,387h-16.5c0,13.35,0,25.35.3,37.05l13.35,1.35v8.1H415.71v-8.1L427,424.2c.3-12.15.3-24.6.3-37.2Z"/>
    <path class="b" d="M298.44,456.42v4.68c0,1.76,0,4.16,0,6.12l2,.4v1.88H290v-1.88l2.08-.44c0-2,0-4.36,0-6.08v-4.2c0-2.6-.52-3.48-2.16-3.48a5.69,5.69,0,0,0-3.56,1.84v5.84c0,1.68,0,4.16,0,6.12l1.88.4v1.88H277.76v-1.88l2.16-.48c0-1.92,0-4.36,0-6V444.34l-2.48-.4v-1.68l8.28-1.8.64.4-.16,5.6v6.44c2.16-2.48,4-3.36,6.36-3.36C296.12,449.54,298.44,451.82,298.44,456.42Z"/>
    <path class="b" d="M302.52,469.5v-1.88l2.16-.48c0-1.92,0-4.36,0-6v-1.92c0-2.2,0-3.44-.12-5l-2.48-.36v-1.56l8.4-2.68.68.44-.12,5.8v5.32c0,1.68,0,4.16,0,6.12l2,.4v1.88Zm1.92-26.08a3.41,3.41,0,1,1,3.4,3.16A3.23,3.23,0,0,1,304.44,443.42Z"/>
    <path class="b" d="M322.52,469.58l-7.2-17.24-2-.4v-1.76h11.36v1.76l-2.52.48L326,462.66l3.48-10.24-2.52-.48v-1.76h7.56v1.76l-2.32.44-6.6,17.2Z"/>
    <path class="b" d="M353.36,458a8.36,8.36,0,0,1-.24,2.12H341.56c.28,4.24,2.56,6.16,5.36,6.16a6.42,6.42,0,0,0,4.84-2.16l1.4,1.28c-1.64,3.16-4.52,4.68-8.4,4.68-5.84,0-10-3.8-10-10.24a10,10,0,0,1,10.28-10.32C350.36,449.54,353.36,453.18,353.36,458Zm-11.8,0H345c1.92,0,2.44-.72,2.44-2.52,0-2.64-1.24-3.92-2.72-3.92S341.72,453.18,341.56,458.06Z"/>
    <path class="b" d="M358.48,455.62c0-3.28,0-6.64-.08-9.92l-3-.32v-2.16h20.68l.28,6.88H373l-.8-4.64h-7c-.08,3-.08,6.16-.08,9.28h4.44l.48-3.12h2.32v9h-2.32l-.52-3.52h-4.4c0,3.56,0,6.76.08,9.88l3.56.36v2.16H355.4v-2.16l3-.32c.08-3.24.08-6.56.08-9.92Z"/>
    <path class="b" d="M411.84,469.58l-7.2-17.24-2-.4v-1.76H414v1.76l-2.52.48,3.76,10.24,3.48-10.24-2.52-.48v-1.76h7.56v1.76l-2.32.44-6.6,17.2Z"/>
    <path class="b" d="M442.68,458a8.36,8.36,0,0,1-.24,2.12H430.88c.28,4.24,2.56,6.16,5.36,6.16a6.42,6.42,0,0,0,4.84-2.16l1.4,1.28c-1.64,3.16-4.52,4.68-8.4,4.68-5.84,0-10-3.8-10-10.24a10,10,0,0,1,10.28-10.32C439.68,449.54,442.68,453.18,442.68,458Zm-11.8,0h3.4c1.92,0,2.44-.72,2.44-2.52,0-2.64-1.24-3.92-2.72-3.92S431,453.18,430.88,458.06Z"/>
    <path class="b" d="M445.88,466.54a3.6,3.6,0,1,1,7.2,0,3.6,3.6,0,0,1-7.2,0Z"/>
    <path class="b" d="M464.44,440.46l.64.4-.16,5.6V461.1c0,2,0,4,.08,6.08l2.2.44v1.88h-11v-1.88l2.2-.48c0-2,.08-4,.08-6V444.34l-2.48-.4v-1.68Z"/>
    <path class="b" d="M469.32,469.5v-1.88l2.16-.48c0-1.92,0-4.36,0-6v-1.92c0-2.2,0-3.44-.12-5l-2.48-.36v-1.56l8.4-2.68.68.44-.12,5.8v5.32c0,1.68,0,4.16,0,6.12l2,.4v1.88Zm1.92-26.08a3.41,3.41,0,1,1,3.4,3.16A3.23,3.23,0,0,1,471.24,443.42Z"/>
    <path class="b" d="M484.24,452.9h-2.6v-2.36l2.68-.32c.48-4,1.8-6.08,3.32-7.52a9.4,9.4,0,0,1,6.68-2.64c2.24,0,4.28.72,4.8,2.84a2.66,2.66,0,0,1-2.88,2.68c-1.36,0-2.48-.84-3.6-2.84l-.32-.48a4.18,4.18,0,0,0-.68.84c-.92,1.6-1.24,3.8-1.12,7.08h4.28v2.72h-4.2v8.2c0,2,0,3.92,0,5.88l3.08.64v1.88H482v-1.88l2.2-.44c0-2,.08-4,.08-6.08Z"/>
    <path class="b" d="M514.52,458a8.36,8.36,0,0,1-.24,2.12H502.72c.28,4.24,2.56,6.16,5.36,6.16a6.42,6.42,0,0,0,4.84-2.16l1.4,1.28c-1.64,3.16-4.52,4.68-8.4,4.68-5.84,0-10-3.8-10-10.24a10,10,0,0,1,10.28-10.32C511.52,449.54,514.52,453.18,514.52,458Zm-11.8,0h3.4c1.92,0,2.44-.72,2.44-2.52,0-2.64-1.24-3.92-2.72-3.92S502.88,453.18,502.72,458.06Z"/>
    <path class="b" d="M378.05,565.37h-1.52l-1.27,9,.2.37,1.19.28-.13,1-4-.56-4.15-7.86-.84,5.94,2,.52-.13,1-4.62-.66.14-1,1.52,0,1.47-10.44,1.47.21,5,9.5,1.05-7.4-2-.52.13-1,4.63.66Z"/>
    <path class="b" d="M356.53,566.92c-.34,1.42-.69,2.88-1,4.31l1.26.45-.22.93L351,571.27l.23-.93,1.32.17c.37-1.39.72-2.83,1.06-4.29l.15-.62c.35-1.44.7-2.89,1-4.32l-1.26-.45.23-.94,5.54,1.34-.22.94-1.33-.17c-.37,1.39-.71,2.83-1.06,4.28Z"/>
    <path class="b" d="M333.14,559.75c-.55,1.35-1.12,2.73-1.65,4.09l1.18.65-.37.89-5.16-2.15.37-.89,1.3.39c.58-1.33,1.14-2.69,1.71-4.07l.23-.55-5.55,3,1,.65-.37.89L322,561.1l.37-.89,1.64.45,3.23-1.7-.7-7.47-.95-.53.37-.89,4.73,2-.37.89-.82-.24.32,4.94,1.4-.73c.39-1,.8-1.95,1.17-2.95l-1-.57.36-.89,5,2.07-.37.89-1.28-.38c-.58,1.32-1.15,2.69-1.72,4.07Z"/>
    <path class="b" d="M313.54,545.05c-1.38-.77-2.73-.3-4,2.06L306.85,552l1.34.9-.46.84-3.7-2.05.46-.84,1.34.6,2.68-4.88c1.81-3.31,4.1-3.87,6.66-2.45,2.3,1.27,3.35,3.34,1.69,6.36l-.93,1.7c-.68,1.24-1.36,2.48-2,3.75l1.05.73-.46.84-5.05-2.8.46-.84,1.35.58c.69-1.22,1.37-2.45,2.05-3.7l.66-1.2C315.29,547.13,315,545.86,313.54,545.05Z"/>
    <path class="b" d="M303.13,538.44l-1.35-.7-5.25,7.44v.42l.94.8-.56.78-3.26-2.33-.11-8.89-3.45,4.89,1.51,1.37-.55.78-3.8-2.71.55-.78,1.36.68,6.07-8.6,1.21.87.08,10.73,4.3-6.1-1.52-1.37.56-.78,3.81,2.72Z"/>
    <path class="b" d="M283.26,529.91c-1,1.1-1.94,2.22-2.88,3.34l.91,1-.64.72-6.77-6,1.92-2.38,1.1,1-1.09,1.79,2.22,2c.91-1,1.83-2,2.74-3.07L279.34,527l-1.08.9-.77-.69L280,524.3l.77.68-.75,1.19,1.43,1.27c1.08-1.23,2-2.31,3-3.42l-2.48-2.2-1.63,1.31-1.1-1,2.11-2.22,7,6.24-.63.72-1.09-.77c-1,1.06-1.95,2.17-2.93,3.29Z"/>
    <path class="b" d="M263.31,510c-1.12.93-2.28,1.87-3.38,2.82l.72,1.12-.74.61-3.32-4.1c-2.38-3-2.1-6.11.69-8.39s6.1-1.77,8.54,1.26l3.12,3.85-.74.61-.95-.95c-1.13.88-2.29,1.83-3.47,2.79Zm2.07-5.59-.37-.46c-1.27-1.57-3.41-1.45-5.79.49s-2.91,4-1.65,5.58l.38.47q1.74-1.36,3.48-2.81l.46-.37C263.08,506.29,264.25,505.34,265.38,504.37Z"/>
    <path class="b" d="M246.26,485.59c3.45-2.21,6.65-1.06,8.22,1.42s1.33,5.84-2.16,8.09-6.64,1-8.2-1.42S242.79,487.83,246.26,485.59Zm7.36,2c-1-1.51-3.19-.91-5.66.69s-3.94,3.36-3,4.87,3.19.91,5.65-.67S254.57,489.06,253.62,487.56Z"/>
    <path class="b" d="M246.81,476.67l-.85-1.26-8.14,4-.19.38.44,1.15-.85.42-1.78-3.61,4.12-7.88-5.36,2.66.69,1.92-.86.43-2.06-4.2.86-.43.87,1.26,9.41-4.67.66,1.34-5,9.48,6.67-3.31-.69-1.93.86-.42,2.07,4.22Z"/>
    <path class="b" d="M239.13,460.28l-.69-1.28-11.09.25-.63-1.72,8.71-7.11-.26-1.06L236,449l1.89,5.16-.87.32-.64-1.22-1.9,1.46,1.24,3.37,2.32-.1-.26-1.34.89-.33L240,460Zm-9.22-1.92,4.77-.19-1-2.74Z"/>
    <path class="b" d="M230.21,437.08c-.91.23-1.21.79-1.41,1.94l-.13.83c-.42,2.25-1.13,3.69-3,4.18-2.06.53-3.74-.83-4.4-3.43a6.22,6.22,0,0,1,.05-3.49l2.44-.48.4,1.59-1.94.85a3.13,3.13,0,0,0,.07,1.21,1.67,1.67,0,0,0,2,1.38c.91-.23,1.23-.91,1.44-2l.15-.91c.44-2.44,1.15-3.6,2.89-4,2-.52,3.86.67,4.61,3.62a7.68,7.68,0,0,1,0,4l-2.57.54-.4-1.6,2-.89a4.41,4.41,0,0,0-.12-1.75A1.7,1.7,0,0,0,230.21,437.08Z"/>
    <path class="b" d="M227.82,416.7l-.34-1.71-9.3.71-.06,1.58-1,.07-.35-4.69,7.55-3.48-8-2.13-.34-4.49.95-.08.24,1.26c1.45-.08,2.92-.19,4.38-.3l.66-.05c1.46-.11,2.93-.23,4.37-.37l0-1.33,1-.07.43,5.67-1,.07-.25-1.29c-1.44.08-2.83.2-4,.27l-3.91.26,9.25,2.48.1,1.37-8.72,4c1.26-.12,2.58-.25,3.48-.32l4.31-.33.12-1.47.95-.08.33,4.34Z"/>
    <path class="b" d="M226.66,387.29c.07-1.58-.94-2.59-3.62-2.72l-5.51-.25-.22,1.61-1,0,.2-4.25.95,0,.06,1.48,5.54.26c3.75.17,5.26,2,5.13,4.92-.12,2.63-1.5,4.49-4.93,4.34l-1.93-.09c-1.4-.07-2.82-.13-4.23-.16L217,393.7l-1,0,.26-5.8,1,0,.07,1.49c1.4.08,2.8.14,4.21.21l1.37.06C225.57,389.79,226.58,389,226.66,387.29Z"/>
    <path class="b" d="M218.71,372.15l-.33,1.3-.95-.14.87-5.81.95.14-.08,1.49c1.43.25,2.88.47,4.34.69l.92.14c1.27.19,2.7.41,4.16.6l.46-3-2.37-.87.22-1.42,3.41.7-1.37,9.12-.95-.15.06-1.34c-1.42-.25-2.82-.46-4-.64l-1-.15C221.61,372.56,220.16,372.34,218.71,372.15Z"/>
    <path class="b" d="M226.36,355c-1.44-.37-2.9-.73-4.37-1.06l-.47,1.88,2.15.89-.35,1.43-3.18-.87,2.51-10.14,3.21.74-.35,1.44-2.32-.25-.47,1.9c1.42.39,2.88.76,4.36,1.13l.62.16c1.43.35,2.86.71,4.27,1l.53-1.45.93.23L232,358l-.93-.23.21-1.51c-1.39-.38-2.81-.74-4.24-1.1Z"/>
    <path class="b" d="M234.62,344.29l.28-1.43-8.66-7,.61-1.72,11.22.15.48-1,.87.31-1.85,5.18-.86-.31.29-1.35-2.39-.1-1.21,3.38,1.85,1.42.65-1.2.91.33-1.29,3.6Zm-5.85-7.42,3.78,2.93,1-2.75Z"/>
    <path class="b" d="M231.61,322.36,234.1,317l.86.41-.44,1.3c1.24.61,2.53,1.21,3.83,1.82l1.67.78a11.66,11.66,0,0,1,4.32,2.91,4,4,0,0,1,.59,4.4,2.21,2.21,0,0,1-1.91,1.46,1.31,1.31,0,0,1-.59-1.83,2.06,2.06,0,0,1,1.56-1.05l.56-.15a6.21,6.21,0,0,0-2.29-1.51c-1.5-.7-4.16-1.87-9-4.06l-.78,1.3Z"/>
    <path class="b" d="M247,315.07l.58-1.41L239.75,309l-.42,0-.71,1-.82-.48,2-3.47,8.81-.87-5.15-3-1.22,1.63-.83-.49,2.36-4,.83.49-.57,1.42,9.05,5.35-.76,1.29-10.63,1,6.42,3.79,1.22-1.63.82.49-2.37,4.05Z"/>
    <path class="b" d="M260.3,285.74c-1.1-.95-2.24-1.92-3.37-2.83l-1,.92-.73-.62,3.41-4c2.45-2.89,5.59-3.2,8.33-.86s2.85,5.71.34,8.68l-3.21,3.79-.72-.63.75-1.11c-1.07-1-2.21-1.93-3.37-2.92Zm5.86,1,.37-.45c1.31-1.55.8-3.64-1.53-5.64s-4.46-2.15-5.76-.62l-.39.46c1.1,1,2.23,2,3.38,2.94l.45.38C263.85,284.84,265,285.82,266.16,286.77Z"/>
    <path class="b" d="M281.05,264.43c2.8,3,2.25,6.37.12,8.38s-5.48,2.38-8.32-.66-2.23-6.38-.11-8.37S278.22,261.4,281.05,264.43Zm-.59,7.63c1.31-1.23.31-3.32-1.7-5.48s-4-3.28-5.31-2.05-.31,3.32,1.69,5.46S279.17,273.28,280.46,272.06Z"/>
    <path class="b" d="M289.86,263.35l1.08-1.08L285.5,255l-.4-.13-1,.66-.58-.77,3.21-2.42,8.46,2.62-3.58-4.8-1.76,1-.57-.77,3.73-2.81.57.77-1.06,1.1,6.28,8.43-1.19.9-10.18-3.21,4.46,6,1.75-1,.58.77-3.75,2.82Z"/><path class="b" d="M304.48,252.75l1.13-.92-2.28-10.91,1.56-.94,8.55,7.29,1-.45.47.8-4.7,2.82-.47-.8,1.08-.85L309,247.18,306,249l.53,2.28,1.26-.51.49.82-3.27,2Zm.19-9.46,1.06,4.67,2.49-1.5Z"/>
    <path class="b" d="M327.78,240.15l-.5-2.28,1.22-.57,1.08,2.52a7.75,7.75,0,0,1-3,2.39c-3.11,1.45-6.43.76-8.17-3s.08-6.85,3.1-8.26a6.83,6.83,0,0,1,3.52-.66l1.22,2.48-1.22.57-1.44-1.9a2.67,2.67,0,0,0-1.29.26c-1.7.8-2.56,2.91-1,6.2s3.6,4,5.3,3.2A3.81,3.81,0,0,0,327.78,240.15Z"/>
    <path class="b" d="M345.39,228.38c1.32,3.9-.56,6.74-3.33,7.68s-6-.11-7.3-4.05.59-6.73,3.34-7.67S344.07,224.45,345.39,228.38Zm-3.66,6.7c1.69-.57,1.64-2.89.69-5.69s-2.29-4.65-4-4.07-1.64,2.89-.7,5.67S340.05,235.66,341.73,235.08Z"/>
    <path class="b" d="M351.64,220.64l5.74-1.37.22.94-1.3.45c.31,1.36.63,2.75,1,4.15l.43,1.8a11.84,11.84,0,0,1,.41,5.22A4,4,0,0,1,355,235a2.23,2.23,0,0,1-2.33-.6,1.32,1.32,0,0,1,1.06-1.61,2.11,2.11,0,0,1,1.8.58l.46.35a6.21,6.21,0,0,0-.25-2.74c-.38-1.62-1.12-4.44-2.41-9.63l-1.5.2Z"/>
    <path class="b" d="M366.88,228.26l1.47-.41-1.23-9-.29-.3-1.23.06-.13-.95,4-.55,6.13,6.42-.81-6-2,.05-.13-1,4.61-.64.13.95-1.46.44,1.43,10.45-1.48.2-7.35-7.78,1,7.41,2,0,.13,1-4.64.64Z"/>
    <path class="b" d="M407.18,221.41a2.34,2.34,0,1,1,2.15,2.56A2.29,2.29,0,0,1,407.18,221.41Z"/>
    <path class="b" d="M448.67,226.77l-4.76,7-1.66-.52.14-11.13-1-.43.29-.92,5.24,1.65-.28.92-1.28-.25-.42,7.42,4.17-6.23-1.19-.54.29-.92,5.07,1.6-.28.92-1.55-.28-.19,7.53,4.1-6.31-1.13-.55.29-.92,3.56,1.12-.28.92-1.39-.2-6.11,9.13-1.65-.52Z"/>
    <path class="b" d="M464.79,234.76c.6-1.33,1.21-2.69,1.78-4l-1.15-.68.39-.88,8.24,3.75-1.15,2.84-1.34-.61.53-2-2.7-1.22c-.59,1.21-1.16,2.48-1.73,3.75l1.75.79.76-1.18.94.43-1.57,3.49-.94-.43.38-1.35-1.75-.8c-.67,1.5-1.26,2.81-1.82,4.14l3,1.37,1.17-1.73,1.34.61-1.37,2.74L461,239.83l.39-.88,1.27.42c.62-1.3,1.23-2.65,1.84-4Z"/>
    <path class="b" d="M491.36,249.12c.83-1.25,1.66-2.51,2.47-3.79l-1.61-1.08L490.66,246l-1.22-.82,1.88-2.71,8.66,5.79L498.2,251l-1.23-.82,1-2.1L496.36,247c-.84,1.21-1.68,2.47-2.52,3.75l-.36.53c-.81,1.23-1.63,2.46-2.4,3.7l1.18,1-.53.8-5.06-3.39.53-.8,1.34.71c.83-1.18,1.64-2.41,2.46-3.64Z"/>
    <path class="b" d="M511.56,264.93c-2.62,3.16-6,3-8.26,1.16s-3-5.17-.38-8.38,6-3,8.25-1.14S514.2,261.74,511.56,264.93Zm-7.6.36c1.37,1.15,3.31-.1,5.19-2.38s2.74-4.4,1.36-5.55-3.31.11-5.18,2.37S502.6,264.15,504,265.29Z"/>
    <path class="b" d="M521.09,281.64a7.59,7.59,0,0,1-3.53-2.17c-2.53-2.64-2.57-6.06.21-8.75s6-2.59,8.81.32a7.54,7.54,0,0,1,1.79,3l-1.94,2-.95-1,1.3-2a3.31,3.31,0,0,0-.69-1.11c-1.33-1.39-3.61-1.45-6.15,1s-2.64,4.74-1.29,6.15a2.64,2.64,0,0,0,.52.44l.54-.53c.76-.73,1.46-1.43,2.19-2.16l-.95-1.31.69-.66,3.74,3.91-.69.67-.72-.58c-.78.72-1.55,1.44-2.34,2.21Z"/>
    <path class="b" d="M531.5,285.48c1.14-.9,2.31-1.82,3.44-2.75l-.71-1.14L535,281l5.56,7.15-2.32,2-.9-1.17,1.4-1.55-1.82-2.34c-1.09.8-2.18,1.66-3.26,2.51l1.17,1.52,1.22-.69.64.82-3,2.35-.64-.81,1-1-1.18-1.52c-1.28,1-2.41,1.9-3.52,2.81l2,2.63,1.84-1,.9,1.16-2.47,1.79-5.78-7.44.75-.59.93,1c1.15-.86,2.31-1.77,3.48-2.7Z"/>
    <path class="b" d="M543,301.51c1.26-.79,2.53-1.6,3.79-2.44l-1-1.64-2.13.95-.78-1.26,2.83-1.7,5.53,8.86-2.76,1.8-.78-1.25,1.78-1.5-1-1.66c-1.26.76-2.54,1.56-3.83,2.38l-.54.34c-1.24.79-2.49,1.57-3.7,2.38l.68,1.38-.81.52L537,303.49l.81-.51.94,1.2c1.23-.74,2.48-1.53,3.72-2.32Z"/>
    <path class="b" d="M551.07,315.41c1.3-.63,2.63-1.28,3.94-2l-.44-1.24.86-.41,2.43,5.05-.86.42-.65-1.07c-1.33.6-2.65,1.24-3.67,1.74l1.64,3.42c1.21-.59,2.44-1.19,3.64-1.81l-.43-1.18.86-.42,2.43,5.07-.86.42-.69-1.12c-1.31.59-2.64,1.23-4,1.88l-.59.29c-1.31.64-2.65,1.29-4,1.95l.45,1.25-.86.42-2.44-5.07.86-.42.65,1.07c1.33-.6,2.67-1.25,4-1.88l-1.64-3.41c-1.42.69-2.68,1.3-3.93,1.94l.43,1.18-.86.42L545,316.9l.86-.42.69,1.11c1.31-.6,2.64-1.24,4-1.89Z"/>
    <path class="b" d="M559.41,334.35c1.37-.49,2.77-1,4.13-1.51l-.31-1.31.9-.32,3,8.56-2.83,1.14-.49-1.39,1.82-1-1-2.8c-1.28.42-2.58.88-3.89,1.35l.64,1.81,1.38-.26.34,1-3.59,1.28-.34-1,1.23-.67-.64-1.81c-1.54.54-2.89,1-4.23,1.54l1.11,3.14,2.05-.35.49,1.39-2.91.91-3.14-8.9.9-.32.58,1.21c1.37-.45,2.75-.94,4.15-1.44Z"/>
    <path class="b" d="M564.74,351.1c1.41-.34,2.86-.69,4.27-1.06l-.18-1.34.94-.22,1.33,5.63c.65,2.72-.06,4.5-1.85,4.93-1.15.28-2.54-.21-3.46-2.45.21,2-.55,2.79-2.09,3.44l-1.84.78.18,1.35-.93.23a6.87,6.87,0,0,1-.7-1.85c-.35-1.47-.14-2.44,1.16-2.93l1.93-.79c1.11-.46,1.54-1,1.29-2.06l-.14-.62c-1.49.36-2.81.68-4.13,1l.18,1.38-.93.23-1.32-5.58.93-.22.44,1.26c1.41-.3,2.84-.64,4.28-1Zm5,1.85c-1.44.31-2.88.65-4.16,1l.16.66a2,2,0,0,0,2.63,1.74c1.4-.33,1.87-1.25,1.53-2.67Z"/>
    <path class="b" d="M565,389.69a7.62,7.62,0,0,1-1.3-3.95,5.77,5.77,0,0,1,5.77-6.55c3.71-.24,6.27,1.93,6.52,6a7.43,7.43,0,0,1-.59,3.48l-2.75.25-.09-1.37,2.27-.66a3.47,3.47,0,0,0,.18-1.3c-.13-1.92-1.82-3.45-5.34-3.22s-5.06,1.9-4.93,3.85a2.35,2.35,0,0,0,.11.67l.76-.05c1-.06,2-.15,3.06-.23l.11-1.61,1-.06.35,5.42-1,.06-.18-.92c-1.06,0-2.11.1-3.2.17Z"/>
    <path class="b" d="M570.45,399.31c1.45,0,2.94.08,4.39.09l.18-1.34,1,0-.15,5.73-1,0-.1-1.34c-1.43-.08-2.9-.12-4.39-.16h-.64c-1.47,0-3-.09-4.41-.09l-.18,1.33-.95,0,.15-5.74,1,0,.1,1.34c1.44.07,2.91.11,4.39.15Z"/>
    <path class="b" d="M574.18,413l.23-1,1,.12-.68,5.69-.9-.11v-1.52l-7.53,1.55,6.92,3.31.39-1.36.9.11-.46,3.84-1-.12,0-1.35-10-4.89.2-1.72Z"/>
    <path class="b" d="M566.88,431.75c1.42.33,2.87.66,4.3.95l.43-1.27.93.21-2,8.85-3-.55.33-1.44,2.08.11.65-2.9c-1.3-.34-2.65-.65-4-.95l-.43,1.87,1.3.52-.22,1-3.72-.85.23-1,1.39.1.43-1.87c-1.59-.37-3-.69-4.4-1l-.73,3.25,1.92.8-.32,1.44-2.94-.8,2.07-9.2.94.21L562,430.6c1.39.35,2.82.68,4.28,1Z"/>
    <path class="b" d="M554.88,455.4l-.47,1.68,8.59,3.67.77-1.38.88.38-1.82,4.33-8.31-.39,6.12,5.57-1.75,4.15L558,473l.36-1.22c-1.33-.6-2.68-1.18-4-1.76l-.61-.25c-1.35-.58-2.7-1.16-4.06-1.7l-.64,1.16-.88-.38,2.21-5.23.88.38-.36,1.26c1.31.6,2.6,1.13,3.67,1.61l3.59,1.57L551.06,462l.53-1.26,9.6.43c-1.17-.48-2.41-1-3.24-1.32l-4-1.7-.78,1.26-.88-.38,1.69-4Z"/>
    <path class="b" d="M545.76,475.67l-.53,1.36,7.3,8.39-.91,1.59-11-2.15-.65.88-.8-.46,2.73-4.78.8.47-.53,1.27,2.34.53,1.78-3.12-1.56-1.73-.86,1.07-.83-.48,1.9-3.32Zm4.45,8.35-3.2-3.56L545.56,483Z"/>
    <path class="b" d="M536.12,491.75l-.72,1.34,7.32,5.4h.41l.81-.93.77.57-2.36,3.25-8.86,0,4.82,3.55,1.38-1.5.77.57-2.76,3.78-.77-.57.71-1.36-8.46-6.24.88-1.21,10.68.1-6-4.42-1.38,1.5-.78-.57,2.77-3.79Z"/>
    <path class="b" d="M522.26,508l.71.65-.91,1.24c.69.66,1.42,1.33,2.54,2.35l6.41,1.9.75-.67.7.65-3.85,4.23-.7-.65.78-1.09L524,515.06l1.9,4.52,1-.77.71.65-2.48,2.72-.7-.65.71-1.1-2.2-5.68-2.9-2.64-1.16,1-.71-.65Z"/>
    <path class="b" d="M496.55,532.73a7.64,7.64,0,0,1,2.51-3.31c2.87-2.27,6.25-2,8.63,1.09s2,6.28-1.2,8.78a7.59,7.59,0,0,1-3.19,1.48l-1.77-2.15,1.08-.84,1.82,1.5a3.21,3.21,0,0,0,1.17-.58c1.51-1.19,1.8-3.46-.37-6.25s-4.42-3.12-6-1.91a2.45,2.45,0,0,0-.49.47l.47.6c.64.83,1.27,1.6,1.92,2.4l1.38-.82.6.76-4.26,3.35-.59-.75.65-.67c-.64-.86-1.27-1.69-1.95-2.56Z"/>
    <path class="b" d="M491.75,542.7c.79,1.23,1.59,2.48,2.41,3.69l1.2-.6.51.8-4.79,3.12-.52-.81,1-.85c-.75-1.23-1.54-2.47-2.35-3.73l-.35-.54c-.8-1.24-1.6-2.49-2.42-3.7l-1.19.6-.52-.81,4.79-3.11.52.81-1,.85c.75,1.23,1.55,2.47,2.35,3.73Z"/>
    <path class="b" d="M479.94,549.88c.67,1.29,1.37,2.61,2.07,3.89l1.25-.5.44.85-8.1,4.29-1.53-2.65,1.3-.69,1.27,1.66,2.73-1.44c-.6-1.21-1.24-2.45-1.88-3.67l-1.75.92.46,1.33-.91.48-1.85-3.55.9-.48.93,1.28,1.73-.91c-.74-1.41-1.39-2.67-2.07-3.88l-1.47.59-.44-.85,5.26-2.78.45.85-1.11.75c.64,1.29,1.32,2.6,2,3.92Z"/>
    <path class="b" d="M462.24,558.36c.55,1.39,1.11,2.8,1.71,4.19l1.79-.72-.54-2.28,1.36-.55,1.16,3.1L458.07,566l-1.28-3,1.37-.55,1.15,2,1.81-.73c-.52-1.39-1.08-2.79-1.64-4.21l-.24-.6c-.55-1.37-1.1-2.74-1.67-4.09l-1.47.42-.36-.89,5.64-2.27.36.89-1.34.71c.5,1.36,1.05,2.73,1.6,4.1Z"/>
    <path class="b" d="M442,561.39c.26.9.83,1.19,2,1.35l.82.11c2.26.35,3.71,1,4.26,2.92.59,2.05-.7,3.78-3.27,4.53a6.14,6.14,0,0,1-3.47.06l-.55-2.43,1.56-.46.91,1.93a3.35,3.35,0,0,0,1.2-.11,1.68,1.68,0,0,0,1.3-2.07c-.26-.91-.93-1.21-2.07-1.38l-.9-.13c-2.45-.36-3.62-1-4.12-2.76-.58-2,.54-3.91,3.44-4.75a7.67,7.67,0,0,1,4-.17l.63,2.56-1.59.46-.94-2a4.23,4.23,0,0,0-1.74.17A1.71,1.71,0,0,0,442,561.39Z"/>
    <path class="b" d="M411.6,570.33a2.34,2.34,0,1,1-2.51-2.2A2.28,2.28,0,0,1,411.6,570.33Z"/>
</svg>