<?xml version="1.0" encoding="utf-8"?>
<!-- Generator: Adobe Illustrator 22.0.1, SVG Export Plug-In . SVG Version: 6.00 Build 0)  -->
<svg version="1.1" id="Layer_1" xmlns="http://www.w3.org/2000/svg" xmlns:xlink="http://www.w3.org/1999/xlink" x="0px" y="0px"
	 viewBox="0 0 200 60" style="enable-background:new 0 0 200 60;" xml:space="preserve">
<style type="text/css">
	.st0{opacity:0.5;}
	.st1{opacity:0.25;}
	.st2{fill:#FFC920;}
	.st3{fill:#FFE28F;}
	.st4{fill:none;stroke:#000000;stroke-width:3.000000e-02;stroke-linecap:round;stroke-linejoin:round;}
</style>
<title>hivefivelogo-02</title>
<g class="st0">
	<path d="M11.8,17.9v7.9h6.5v-7.9h4.4v20.2h-4.4v-8.5h-6.5v8.5H7.4V17.9H11.8z"/>
	<path d="M30.9,17.9v20.2h-4.4V17.9H30.9z"/>
	<path d="M39,38.2l-5.9-20.2h4.8l2.1,8.6c0.6,2.3,1.2,4.7,1.6,7.2h0.1c0.4-2.4,1-4.8,1.6-7.1l2.2-8.6h4.7L44,38.2H39z"/>
	<path d="M63.2,29.5h-6.6v5H64v3.6H52.2V17.9h11.4v3.7h-7v4.3h6.6L63.2,29.5z"/>
	<path d="M67,17.9h11.3v3.7h-6.9v4.8h6.5V30h-6.5v8.2h-4.4L67,17.9z"/>
	<path d="M85.9,17.9v20.2h-4.4V17.9H85.9z"/>
	<path d="M94,38.2l-5.9-20.2h4.8l2.1,8.6c0.6,2.3,1.2,4.7,1.6,7.2h0.1c0.4-2.4,1-4.8,1.6-7.1l2.2-8.6h4.7L99,38.2H94z"/>
	<path d="M118.2,29.5h-6.6v5h7.4v3.6h-11.8V17.9h11.4v3.7h-7v4.3h6.6L118.2,29.5z"/>
	<path d="M144.7,17.9h4.4v16.5h7.2v3.7h-11.6V17.9z"/>
	<path d="M163.2,17.9v20.2h-4.4V17.9H163.2z"/>
	<path d="M167,17.9h11.3v3.7h-6.9v4.8h6.5V30h-6.5v8.2H167L167,17.9z"/>
	<path d="M192.6,29.5H186v5h7.4v3.6h-11.8V17.9H193v3.7h-7v4.3h6.6L192.6,29.5z"/>
</g>
<g class="st0">
	<path d="M127.6,45.5v-3.8h0.2l1.3,2.1c0.2,0.4,0.5,0.8,0.7,1.3l0,0c0-0.6,0-1,0-1.6v-1.8h0.3v3.8h-0.2l-1.3-2.2
		c-0.2-0.4-0.5-0.8-0.7-1.3l0,0c0,0.5,0,0.9,0,1.6v1.8L127.6,45.5z"/>
	<path d="M131.2,42.1c0,0.1,0,0.2-0.2,0.2c-0.1,0-0.2,0-0.2-0.2c0,0,0-0.1,0-0.1c0-0.1,0.1-0.2,0.2-0.2c0,0,0,0,0,0
		C131.1,41.9,131.2,42,131.2,42.1C131.2,42.1,131.2,42.1,131.2,42.1z M130.9,45.5v-2.7h0.3v2.7H130.9z"/>
	<path d="M133.4,44.1L133.4,44.1c0.1-0.1,0.2-0.2,0.2-0.3l0.9-1h0.3l-1,1.1l1.1,1.6h-0.3l-1-1.4l-0.2,0.3v1.1h-0.3v-3.9h0.3V44.1z"
		/>
	<path d="M137.2,44.9c0,0.3,0,0.5,0,0.7H137l0-0.4l0,0c-0.2,0.3-0.5,0.5-0.8,0.5c-0.4,0-0.8-0.2-0.8-1.1v-1.6h0.3v1.5
		c0,0.6,0.1,1,0.6,1c0.3,0,0.6-0.2,0.7-0.5c0-0.1,0-0.2,0-0.3v-1.7h0.2V44.9z"/>
	<path d="M138,43.5c0-0.3,0-0.4,0-0.6h0.2v0.4l0,0c0.2-0.3,0.5-0.5,0.8-0.5c0.3,0,0.8,0.1,0.8,1.1v1.7h-0.3v-1.6
		c0-0.5-0.2-0.9-0.7-0.9c-0.3,0-0.6,0.3-0.7,0.6c0,0.1,0,0.2,0,0.2v1.7H138V43.5z"/>
	<path d="M140.8,44.1c0,0.9,0.4,1.2,0.9,1.2c0.2,0,0.4,0,0.6-0.1l0.1,0.2c-0.2,0.1-0.5,0.2-0.7,0.2c-0.7,0-1.1-0.6-1.1-1.4
		c0-0.9,0.5-1.4,1.1-1.4c0.8,0,0.9,0.8,0.9,1.2c0,0.1,0,0.1,0,0.2L140.8,44.1z M142.3,43.9c0-0.5-0.2-0.9-0.7-0.9s-0.7,0.5-0.8,0.9
		H142.3z"/>
	<path d="M146.2,41.6v3.3c0,0.2,0,0.4,0,0.6H146l0-0.5l0,0c-0.1,0.3-0.5,0.5-0.8,0.5c-0.6,0-1-0.5-1-1.4c0-0.9,0.5-1.4,1.1-1.4
		c0.3,0,0.6,0.1,0.8,0.4l0,0v-1.6H146.2z M146,43.9c0-0.1,0-0.2,0-0.2c-0.1-0.4-0.4-0.6-0.7-0.7c-0.5,0-0.8,0.5-0.8,1.2
		c0,0.6,0.3,1.2,0.8,1.2c0.4,0,0.7-0.3,0.8-0.7c0-0.1,0-0.1,0-0.2L146,43.9z"/>
	<path d="M149.1,44.2c0,1-0.6,1.4-1.1,1.4c-0.5,0-1.1-0.5-1.1-1.4s0.5-1.4,1.1-1.4S149.1,43.3,149.1,44.2z M147.1,44.2
		c0,0.6,0.3,1.2,0.9,1.2s0.9-0.6,0.9-1.2c0-0.5-0.2-1.2-0.9-1.2C147.3,43,147.1,43.7,147.1,44.2z"/>
	<path d="M149.7,43.5c0-0.3,0-0.4,0-0.6h0.2v0.4l0,0c0.2-0.3,0.5-0.5,0.9-0.5c0.3,0,0.8,0.1,0.8,1.1v1.7h-0.3v-1.6
		c0-0.5-0.2-0.9-0.7-0.9c-0.3,0-0.6,0.3-0.7,0.6c0,0.1,0,0.2,0,0.2v1.7h-0.3L149.7,43.5z"/>
	<path d="M153.8,45.5l0-0.4l0,0c-0.2,0.3-0.4,0.4-0.8,0.4c-0.4,0-0.7-0.3-0.7-0.7c0,0,0,0,0-0.1c0-0.6,0.5-1,1.5-1v-0.1
		c0-0.3-0.1-0.8-0.6-0.8c-0.2,0-0.4,0.1-0.6,0.2l-0.1-0.2c0.2-0.1,0.5-0.2,0.7-0.2c0.7,0,0.8,0.5,0.8,1v1.1c0,0.2,0,0.4,0,0.6
		L153.8,45.5z M153.7,44.1c-0.5,0-1.2,0.1-1.2,0.7c0,0.3,0.1,0.5,0.4,0.6c0,0,0,0,0.1,0c0.3,0,0.6-0.2,0.7-0.5c0-0.1,0-0.1,0-0.2
		L153.7,44.1z"/>
	<path d="M154.7,45.2c0.2,0.1,0.4,0.2,0.5,0.2c0.3,0,0.5-0.2,0.6-0.4c0,0,0-0.1,0-0.1c0-0.3-0.1-0.4-0.5-0.6
		c-0.4-0.2-0.6-0.4-0.6-0.7c0-0.4,0.3-0.7,0.7-0.7c0,0,0,0,0,0c0.2,0,0.4,0.1,0.5,0.2l-0.1,0.2c-0.1-0.1-0.3-0.2-0.5-0.2
		c-0.2,0-0.5,0.2-0.5,0.4c0,0,0,0,0,0c0,0.3,0.2,0.4,0.5,0.5s0.7,0.4,0.7,0.8c0,0.4-0.3,0.8-0.7,0.8c0,0-0.1,0-0.1,0
		c-0.2,0-0.4-0.1-0.6-0.2L154.7,45.2z"/>
	<path d="M157.8,43.5c0-0.3,0-0.4,0-0.6h0.2v0.4l0,0c0.1-0.3,0.5-0.5,0.8-0.5c0.3,0,0.6,0.2,0.7,0.5l0,0c0.1-0.1,0.2-0.3,0.3-0.4
		c0.2-0.1,0.4-0.2,0.6-0.2c0.3,0,0.8,0.2,0.8,1.1v1.7h-0.3v-1.6c0-0.5-0.2-0.9-0.6-0.9c-0.3,0-0.6,0.2-0.6,0.5c0,0.1,0,0.2,0,0.3
		v1.7h-0.3v-1.7c0-0.4-0.2-0.8-0.6-0.8c-0.3,0-0.6,0.3-0.7,0.6c0,0.1,0,0.2,0,0.3v1.7h-0.3L157.8,43.5z"/>
	<path d="M163.9,44.9c0,0.3,0,0.5,0,0.7h-0.2l0-0.4l0,0c-0.2,0.3-0.5,0.5-0.8,0.5c-0.4,0-0.8-0.2-0.8-1.1v-1.6h0.3v1.5
		c0,0.6,0.1,1,0.6,1c0.3,0,0.6-0.2,0.7-0.5c0-0.1,0-0.2,0-0.3v-1.7h0.3L163.9,44.9z"/>
	<path d="M164.7,41.6h0.3v3.9h-0.3V41.6z"/>
	<path d="M166.2,42.1v0.8h0.7v0.2h-0.7v1.8c0,0.4,0.1,0.5,0.4,0.5c0.1,0,0.2,0,0.3,0l0,0.2c-0.1,0-0.2,0.1-0.3,0.1
		c-0.2,0-0.3-0.1-0.4-0.2c-0.1-0.2-0.2-0.4-0.1-0.6v-1.7h-0.4v-0.2h0.4v-0.7L166.2,42.1z"/>
	<path d="M168.7,45.5l0-0.4l0,0c-0.2,0.3-0.4,0.4-0.8,0.4c-0.4,0-0.7-0.3-0.7-0.7c0,0,0,0,0-0.1c0-0.6,0.5-1,1.5-1v-0.1
		c0-0.3-0.1-0.8-0.6-0.8c-0.2,0-0.4,0.1-0.6,0.2l-0.1-0.2c0.2-0.1,0.5-0.2,0.7-0.2c0.7,0,0.8,0.5,0.8,1v1.1c0,0.2,0,0.4,0,0.6
		L168.7,45.5z M168.7,44.1c-0.5,0-1.2,0.1-1.2,0.7c0,0.3,0.1,0.5,0.4,0.6c0,0,0,0,0.1,0c0.3,0,0.6-0.2,0.7-0.5c0-0.1,0-0.1,0-0.2
		L168.7,44.1z"/>
	<path d="M169.1,46.5c0.2,0,0.4-0.1,0.5-0.2c0.1-0.2,0.2-0.4,0.2-1.1v-2.4h0.3v2.5c0,0.4,0,0.7-0.3,1c-0.2,0.2-0.4,0.3-0.6,0.3
		L169.1,46.5z M170.1,42.1c0,0.1-0.1,0.2-0.2,0.2c0,0,0,0,0,0c-0.1,0-0.2-0.1-0.2-0.2c0,0,0,0,0,0c0-0.1,0.1-0.2,0.2-0.2
		c0,0,0,0,0,0C170,41.9,170.1,42,170.1,42.1C170.1,42.1,170.1,42.1,170.1,42.1L170.1,42.1z"/>
	<path d="M170.8,43.5c0-0.3,0-0.4,0-0.6h0.2l0,0.4l0,0c0.2-0.3,0.5-0.5,0.8-0.5c0.3,0,0.8,0.1,0.8,1.1v1.7h-0.3v-1.6
		c0-0.5-0.2-0.9-0.7-0.9c-0.3,0-0.6,0.3-0.7,0.6c0,0.1,0,0.2,0,0.2v1.7h-0.3L170.8,43.5z"/>
	<path d="M176.6,41.6v3.3c0,0.2,0,0.4,0,0.6h-0.2l0-0.5l0,0c-0.1,0.3-0.5,0.5-0.8,0.5c-0.6,0-1-0.5-1-1.4c0-0.9,0.5-1.4,1.1-1.4
		c0.3,0,0.6,0.2,0.8,0.4l0,0v-1.6H176.6z M176.4,43.9c0-0.1,0-0.2,0-0.2c-0.1-0.4-0.4-0.6-0.7-0.7c-0.5,0-0.8,0.5-0.8,1.2
		c0,0.6,0.3,1.2,0.8,1.2c0.4,0,0.7-0.3,0.8-0.7c0-0.1,0-0.1,0-0.2V43.9z"/>
	<path d="M179.5,44.2c0,1-0.6,1.4-1.1,1.4c-0.5,0-1.1-0.5-1.1-1.4s0.5-1.4,1.2-1.4C179,42.8,179.5,43.3,179.5,44.2z M177.5,44.2
		c0,0.6,0.3,1.2,0.9,1.2s0.9-0.6,0.9-1.2c0-0.5-0.2-1.2-0.9-1.2S177.5,43.7,177.5,44.2z"/>
	<path d="M180.1,43.5c0-0.3,0-0.4,0-0.6h0.2v0.4l0,0c0.2-0.3,0.5-0.5,0.9-0.5c0.3,0,0.8,0.1,0.8,1.1v1.7h-0.3v-1.6
		c0-0.5-0.2-0.9-0.7-0.9c-0.3,0-0.6,0.3-0.7,0.6c0,0.1,0,0.2,0,0.2v1.7h-0.3L180.1,43.5z"/>
	<path d="M184.2,45.5l0-0.4l0,0c-0.2,0.3-0.4,0.4-0.7,0.4c-0.4,0-0.7-0.3-0.7-0.7c0,0,0,0,0-0.1c0-0.6,0.5-1,1.5-1v-0.1
		c0-0.3-0.1-0.8-0.6-0.8c-0.2,0-0.4,0.1-0.6,0.2l-0.1-0.2c0.2-0.1,0.5-0.2,0.7-0.2c0.7,0,0.8,0.5,0.8,1v1.1c0,0.2,0,0.4,0,0.6
		L184.2,45.5z M184.1,44.1c-0.5,0-1.2,0.1-1.2,0.7c0,0.3,0.1,0.5,0.4,0.6c0,0,0.1,0,0.1,0c0.3,0,0.6-0.2,0.7-0.5c0-0.1,0-0.1,0-0.2
		L184.1,44.1z"/>
	<path d="M186.8,45.4c-0.2,0.1-0.4,0.2-0.7,0.2c-0.7,0-1.2-0.5-1.2-1.4s0.5-1.4,1.3-1.4c0.2,0,0.4,0,0.6,0.1l-0.1,0.2
		c-0.2-0.1-0.4-0.1-0.5-0.1c-0.6,0-1,0.6-1,1.2c0,0.7,0.4,1.2,1,1.2c0.2,0,0.4,0,0.6-0.1L186.8,45.4z"/>
	<path d="M189.4,44.2c0,1-0.6,1.4-1.1,1.4c-0.5,0-1.1-0.5-1.1-1.4s0.5-1.4,1.1-1.4S189.4,43.3,189.4,44.2z M187.5,44.2
		c0,0.6,0.3,1.2,0.9,1.2s0.9-0.6,0.9-1.2c0-0.5-0.2-1.2-0.9-1.2S187.5,43.7,187.5,44.2L187.5,44.2z"/>
	<path d="M189.4,46.5c0.2,0,0.4-0.1,0.5-0.2c0.1-0.2,0.2-0.4,0.2-1.1v-2.4h0.3v2.5c0,0.4,0,0.7-0.3,1c-0.2,0.2-0.4,0.3-0.6,0.3
		L189.4,46.5z M190.4,42.1c0,0.1-0.1,0.2-0.2,0.2c0,0,0,0,0,0c-0.1,0-0.2-0.1-0.2-0.2c0,0,0,0,0,0c0-0.1,0.1-0.2,0.2-0.2
		c0,0,0,0,0,0C190.4,41.9,190.4,42,190.4,42.1C190.4,42.1,190.4,42.1,190.4,42.1L190.4,42.1z"/>
	<path d="M191.2,43.5c0-0.3,0-0.4,0-0.6h0.2l0,0.4l0,0c0.2-0.3,0.5-0.5,0.8-0.5c0.3,0,0.8,0.1,0.8,1.1v1.7h-0.3v-1.6
		c0-0.5-0.2-0.9-0.7-0.9c-0.3,0-0.6,0.3-0.7,0.6c0,0.1,0,0.2,0,0.2v1.7h-0.3V43.5z"/>
	<path d="M193.8,45.4c0-0.1,0.1-0.2,0.2-0.2c0,0,0,0,0,0c0.1,0,0.3,0.1,0.3,0.2c0,0.1-0.1,0.3-0.2,0.3
		C193.9,45.6,193.8,45.5,193.8,45.4C193.8,45.4,193.8,45.4,193.8,45.4z"/>
</g>
<g class="st1">
	<g id="ARC">
		<path d="M129.3,33.8c-0.3-1.9-1.8-3.4-3.8-3.8c0,0.1-0.1,0.3-0.1,0.4c0.4,1.7,1.7,3.1,3.4,3.4C129,33.8,129.1,33.8,129.3,33.8z
			 M141.8,34.4c0.1,3.5-2.7,6.4-6.1,6.4c-3.5,0.1-6.4-2.7-6.4-6.1c0-0.1,0-0.2,0-0.3c-1.1,0.2-2.2,0-3.1-0.6l-5.3,4.5l4.6-5.3
			c-0.6-0.9-0.8-2-0.5-3.1c-3.5,0-6.3-2.9-6.3-6.3c0-3.5,2.9-6.3,6.3-6.3c3.5,0,6.3,2.8,6.3,6.3c1.5-0.2,2.7,0.1,3.5,0.9
			c0,0,0,0,0,0l0,0c0.8,0.8,1.1,2,0.9,3.5C139,28.1,141.8,31,141.8,34.4L141.8,34.4z M135.1,39.4c2.8,0.2,5.2-1.8,5.4-4.6
			c0.2-2.8-1.8-5.2-4.6-5.4c0,0,0,0-0.1,0c-0.2,0-0.5,0-0.7,0c-0.9,2.1-2.6,3.8-4.7,4.6C130.3,36.8,132.4,39.2,135.1,39.4z
			 M132.6,32l0.2-0.2c-2.2-1.3-4-3.1-5.3-5.4c-0.1,0.1-0.3,0.3-0.4,0.4c-0.5,0.6-0.9,1.2-1.2,1.9l0,0c2.3,0.5,4.1,2.3,4.6,4.6
			l0.1-0.1C131.3,33,132,32.5,132.6,32z M133.6,30.9c0.2-0.2,0.4-0.5,0.5-0.8c0.1-0.2,0.3-0.5,0.4-0.8c-2.3-0.5-4.1-2.3-4.6-4.6
			c-0.4,0.2-0.7,0.3-1,0.5c-0.2,0.1-0.3,0.2-0.5,0.3C129.6,27.8,131.4,29.6,133.6,30.9L133.6,30.9z M134.9,28.2
			C134.9,28.1,134.9,28.1,134.9,28.2c0.1-0.7,0.1-1.3,0-1.9c-0.1-0.4-0.3-0.8-0.7-1.2c-0.4-0.4-0.8-0.6-1.4-0.7
			c-0.6-0.1-1.2-0.1-1.7,0C131.5,26.3,133,27.8,134.9,28.2L134.9,28.2z M124.5,28.7c0.2,0,0.5,0,0.7,0c0.9-2.1,2.6-3.8,4.7-4.6
			c0.2-2.8-1.9-5.2-4.6-5.4c-2.8-0.2-5.2,1.9-5.4,4.6C119.7,26.1,121.7,28.5,124.5,28.7C124.5,28.7,124.5,28.7,124.5,28.7
			L124.5,28.7z"/>
		<path class="st2" d="M132.8,31.8l-0.2,0.2c-0.6,0.5-1.3,1-2,1.3l-0.1,0.1c-0.5-2.3-2.3-4.1-4.6-4.6l0,0c0.3-0.7,0.7-1.3,1.2-1.9
			c0.1-0.1,0.2-0.3,0.4-0.4C128.7,28.7,130.6,30.5,132.8,31.8z"/>
		<path d="M140.1,20.4L140.1,20.4c-0.1-0.1-0.1-0.2-0.2-0.3l0,0l-0.4,0.4l0,0c-0.1,0.1-0.1,0.2,0,0.3c0,0,0,0,0,0
			c0.1,0.1,0.2,0.1,0.3,0c0,0,0,0,0,0l0,0L140.1,20.4z M138.8,19.2L138.8,19.2c-1.5-0.8-3.4-0.2-4.3,1.3c-0.8,1.5-0.2,3.4,1.3,4.3
			c1.5,0.8,3.4,0.2,4.3-1.3c0.5-0.9,0.5-2,0-2.9l-0.3,0.3l0,0c-0.1,0.1-0.3,0.1-0.4,0c-0.1-0.1-0.1-0.3,0-0.4c0,0,0,0,0,0l0,0
			l0.5-0.4l0,0c-0.1-0.2-0.3-0.3-0.4-0.4l0,0l-0.4,0.4l0,0c-0.1,0.1-0.3,0.1-0.4,0c-0.1-0.1-0.1-0.3,0-0.4l0,0L138.8,19.2z
			 M138.9,19.3l-0.4,0.4l0,0c-0.1,0.1-0.1,0.2,0,0.3c0.1,0.1,0.2,0.1,0.3,0l0,0l0.4-0.4l0,0C139.1,19.4,139,19.3,138.9,19.3
			L138.9,19.3z M139.6,18.9L139.6,18.9c0.3,0.2,0.6,0.5,0.8,0.8l0.5-0.5l0,0l3,0.4c0-0.1,0.1-0.1,0.2,0c0,0,0,0,0,0.1
			c0,0.1,0,0.1-0.1,0.2c0,0,0,0,0,0c-0.1,0-0.1,0-0.2-0.1c0,0,0,0,0,0l-3-0.4l0,0l-0.5,0.5c1.2,1.7,0.7,4.1-1.1,5.2
			c-1.3,0.9-2.9,0.8-4.2,0c-0.2-0.1-0.4-0.3-0.5-0.4l0,0l0,0c-1.5-1.5-1.4-3.9,0-5.3c1.3-1.3,3.3-1.4,4.8-0.4l0.5-0.5l0,0l-0.4-3
			c-0.1,0-0.1-0.1-0.1-0.2c0-0.1,0.1-0.1,0.2-0.1c0,0,0,0,0,0c0,0.1,0,0.1,0,0.2c0,0,0,0,0,0l0.4,3l0,0L139.6,18.9z"/>
		<path class="st2" d="M134.1,30.1c-0.2,0.3-0.3,0.5-0.5,0.8c-2.2-1.2-4-3.1-5.2-5.2c0.2-0.1,0.3-0.2,0.5-0.3c0.3-0.2,0.7-0.4,1-0.5
			c0.5,2.3,2.3,4.1,4.6,4.6C134.4,29.6,134.3,29.9,134.1,30.1z"/>
		<path class="st2" d="M140.1,23.4c-0.8,1.5-2.7,2.1-4.2,1.3c-1.5-0.8-2.1-2.7-1.3-4.2c0.8-1.5,2.7-2.1,4.2-1.3c0,0,0,0,0,0l0,0
			l-0.3,0.3l0,0c-0.1,0.1-0.1,0.3,0,0.4c0.1,0.1,0.3,0.1,0.4,0l0,0l0,0l0.4-0.4l0,0c0.2,0.1,0.3,0.3,0.4,0.4l0,0l-0.4,0.4l0,0
			c-0.1,0.1-0.1,0.3,0,0.4c0,0,0,0,0,0c0.1,0.1,0.3,0.1,0.4,0l0,0l0.3-0.3C140.6,21.4,140.6,22.5,140.1,23.4z M139,23
			c0.1,0.1,0.2,0.1,0.3,0c0.1-0.1,0.1-0.2,0-0.3c-0.1-0.1-0.2-0.1-0.2,0h-0.5c-0.1-0.1-0.3-0.2-0.4-0.1c-0.1,0.1-0.2,0.3-0.1,0.4
			c0.1,0.1,0.3,0.2,0.4,0.1c0,0,0.1-0.1,0.1-0.1L139,23z M135.6,23.8l1.3-0.1l-1.2-1.2L135.6,23.8z M136.6,21.4
			c0.1-0.1,0.2-0.3,0.1-0.4c0,0,0,0,0,0c0,0-0.1-0.1-0.1-0.1v-0.5c0.1-0.1,0.1-0.2,0-0.3c-0.1-0.1-0.2-0.1-0.3,0c0,0,0,0,0,0
			c-0.1,0.1-0.1,0.2,0,0.2v0.5c-0.2,0.1-0.2,0.3-0.1,0.4C136.3,21.4,136.5,21.4,136.6,21.4L136.6,21.4z"/>
		<path class="st2" d="M134.9,28C134.9,28.1,134.9,28.1,134.9,28c-1.9-0.3-3.4-1.8-3.8-3.7c0.6-0.1,1.2-0.1,1.7,0
			c0.5,0.1,1,0.4,1.4,0.7c0.3,0.3,0.5,0.7,0.7,1.2C135,26.8,135.1,27.4,134.9,28z"/>
		<path class="st2" d="M129.3,33.8c-0.1,0-0.3,0.1-0.4,0.1c-1.7-0.4-3-1.7-3.4-3.4c0-0.1,0-0.3,0.1-0.4
			C127.4,30.3,128.9,31.8,129.3,33.8z"/>
		<path d="M139.3,23c-0.1,0.1-0.2,0.1-0.3,0c0,0,0,0,0,0h-0.5c0,0-0.1,0.1-0.1,0.1c-0.2,0.1-0.3,0-0.4-0.1c-0.1-0.2,0-0.3,0.1-0.4
			s0.3,0,0.4,0.1c0,0,0,0,0,0h0.5c0.1-0.1,0.2-0.1,0.3,0S139.4,22.9,139.3,23L139.3,23L139.3,23z"/>
		<polygon points="136.8,23.7 135.6,23.7 135.6,22.5 		"/>
		<path class="st3" d="M140.1,20.4l-0.4,0.4l0,0c-0.1,0.1-0.2,0.1-0.3,0c0,0,0,0,0,0c-0.1-0.1-0.1-0.2,0-0.3c0,0,0,0,0,0l0,0
			l0.4-0.4l0,0C139.9,20.2,140,20.3,140.1,20.4L140.1,20.4z"/>
		<path class="st3" d="M139.3,19.5l-0.4,0.4l0,0c-0.1,0.1-0.2,0.1-0.3,0c-0.1-0.1-0.1-0.2,0-0.3l0,0l0.4-0.4l0,0
			C139,19.3,139.1,19.4,139.3,19.5L139.3,19.5z"/>
		<path d="M136.7,20.9c0.1,0.1,0,0.3-0.1,0.4s-0.3,0-0.4-0.1c-0.1-0.1,0-0.3,0.1-0.4v-0.5c-0.1-0.1-0.1-0.2,0-0.2
			c0.1-0.1,0.2-0.1,0.3,0c0,0,0,0,0,0c0.1,0.1,0.1,0.2,0,0.3v0.5C136.7,20.8,136.7,20.9,136.7,20.9z"/>
		<path class="st4" d="M124.8,30c-0.2,1.1,0,2.2,0.5,3.1"/>
		<path class="st4" d="M126.2,33.8c0.9,0.6,2,0.8,3.1,0.6"/>
		<path class="st4" d="M130.5,34c2.1-0.9,3.8-2.5,4.7-4.6"/>
		<path class="st4" d="M134.7,24.6L134.7,24.6c-0.8-0.8-2-1.2-3.5-0.9"/>
		<path class="st4" d="M135.6,28.1c0.3-1.5-0.1-2.7-0.9-3.5"/>
		<path class="st4" d="M129.9,24.1c-2.1,0.9-3.8,2.5-4.7,4.6"/>
		<path class="st4" d="M125.5,30c0,0.1-0.1,0.3-0.1,0.4"/>
		<path class="st4" d="M128.8,33.8c0.1,0,0.3,0,0.4-0.1"/>
		<path class="st4" d="M130.5,33.4l0.1-0.1c0.7-0.3,1.4-0.8,2-1.3l0.2-0.2"/>
		<path class="st4" d="M133.6,30.9c0.2-0.2,0.4-0.5,0.5-0.8c0.1-0.2,0.3-0.5,0.4-0.8"/>
		<path class="st4" d="M134.9,28.1C134.9,28.1,134.9,28.1,134.9,28.1c0.1-0.7,0.1-1.3,0-1.9c-0.1-0.4-0.3-0.8-0.7-1.2
			c-0.4-0.4-0.8-0.6-1.4-0.7c-0.6-0.1-1.2-0.1-1.7,0"/>
		<path class="st4" d="M129.9,24.7c-0.4,0.2-0.7,0.3-1,0.5c-0.2,0.1-0.3,0.2-0.5,0.3"/>
		<path class="st4" d="M127.4,26.5c-0.1,0.1-0.3,0.3-0.4,0.4c-0.5,0.6-0.9,1.2-1.2,1.9"/>
		<path class="st4" d="M139.5,18.9L139.5,18.9c-1.7-1.2-4.1-0.8-5.2,0.9c-1,1.5-0.9,3.5,0.4,4.8c0,0,0,0,0,0l0,0
			c0.2,0.1,0.3,0.3,0.5,0.4c1.7,1.2,4.1,0.7,5.2-1c0.9-1.3,0.9-2.9,0-4.2l0,0"/>
		<path class="st4" d="M140.4,19.7L140.4,19.7c-0.2-0.3-0.5-0.6-0.8-0.8"/>
		<path class="st4" d="M139.3,19.5c-0.1-0.1-0.2-0.2-0.3-0.2"/>
		<path class="st4" d="M138.8,19.2c-1.5-0.8-3.4-0.2-4.3,1.3c-0.8,1.5-0.2,3.4,1.3,4.3c1.5,0.8,3.4,0.2,4.3-1.3c0.5-0.9,0.5-2,0-2.9
			l0,0"/>
		<path class="st4" d="M140.1,20.4c-0.1-0.1-0.1-0.2-0.2-0.3"/>
		<path class="st4" d="M139.8,20c-0.1-0.2-0.3-0.3-0.4-0.4l0,0"/>
		<path class="st4" d="M131.1,24.4c0.3,1.9,1.8,3.4,3.8,3.8"/>
		<path class="st4" d="M129.9,24.7c0.5,2.3,2.3,4.1,4.6,4.6"/>
		<path class="st4" d="M138.5,19.5c-0.1,0.1-0.1,0.3,0,0.4c0.1,0.1,0.3,0.1,0.4,0"/>
		<path class="st4" d="M138.6,19.6c-0.1,0.1-0.1,0.2,0,0.3c0.1,0.1,0.2,0.1,0.3,0"/>
		<line class="st4" x1="120.8" y1="38.4" x2="125.4" y2="33.1"/>
		<line class="st4" x1="120.8" y1="38.4" x2="126.2" y2="33.8"/>
		<path class="st4" d="M131.2,23.7c0-3.5-2.8-6.3-6.3-6.3c-3.5,0-6.3,2.8-6.3,6.3c0,3.5,2.8,6.3,6.3,6.3"/>
		<path class="st4" d="M129.9,24.1c0.2-2.8-1.9-5.2-4.6-5.4c-2.8-0.2-5.2,1.9-5.4,4.6c-0.2,2.8,1.9,5.2,4.6,5.4c0,0,0,0,0,0
			c0.2,0,0.5,0,0.7,0"/>
		<path class="st4" d="M129.3,33.8L129.3,33.8c-0.3-1.9-1.8-3.4-3.8-3.8l0,0"/>
		<path class="st4" d="M130.5,33.4c-0.5-2.3-2.3-4.1-4.6-4.6"/>
		<path class="st4" d="M129.2,34.4c0,3.5,2.8,6.3,6.3,6.3c3.5,0,6.3-2.8,6.3-6.3c0-3.5-2.8-6.3-6.3-6.3"/>
		<path class="st4" d="M130.5,34c-0.2,2.8,1.9,5.2,4.6,5.4c2.8,0.2,5.2-1.9,5.4-4.6c0.2-2.8-1.9-5.2-4.6-5.4c0,0,0,0,0,0
			c-0.2,0-0.5,0-0.7,0"/>
		<path class="st4" d="M128.4,25.6c1.2,2.2,3,4,5.2,5.2"/>
		<path class="st4" d="M127.4,26.5c1.3,2.2,3.1,4.1,5.3,5.4"/>
		<path class="st4" d="M125.4,30.4c0.4,1.7,1.7,3.1,3.4,3.4"/>
		<line class="st4" x1="125.9" y1="28.8" x2="125.9" y2="28.8"/>
		<path class="st4" d="M138.5,22.7c-0.1-0.1-0.3-0.2-0.4-0.1c-0.1,0.1-0.2,0.3-0.1,0.4c0.1,0.1,0.3,0.2,0.4,0.1c0,0,0.1-0.1,0.1-0.1
			"/>
		<line class="st4" x1="138.5" y1="22.7" x2="139" y2="22.7"/>
		<line class="st4" x1="139" y1="23" x2="138.5" y2="23"/>
		<path class="st4" d="M139,23c0.1,0.1,0.2,0.1,0.3,0c0.1-0.1,0.1-0.2,0-0.3c-0.1-0.1-0.2-0.1-0.2,0"/>
		<path class="st4" d="M136.3,20.8c-0.1,0.1-0.2,0.3-0.1,0.4c0.1,0.1,0.3,0.2,0.4,0.1c0.1-0.1,0.2-0.3,0.1-0.4c0,0-0.1-0.1-0.1-0.1"
			/>
		<line class="st4" x1="136.6" y1="20.8" x2="136.6" y2="20.3"/>
		<line class="st4" x1="136.3" y1="20.3" x2="136.3" y2="20.8"/>
		<path class="st4" d="M136.6,20.3c0.1-0.1,0.1-0.2,0-0.3c-0.1-0.1-0.2-0.1-0.3,0c0,0,0,0,0,0c-0.1,0.1-0.1,0.2,0,0.2"/>
		<polyline class="st4" points="138.5,19.5 138.8,19.2 138.8,19.2 		"/>
		<polyline class="st4" points="138.6,19.6 138.9,19.2 138.9,19.2 		"/>
		<line class="st4" x1="138.9" y1="20" x2="139.4" y2="19.5"/>
		<line class="st4" x1="138.8" y1="19.9" x2="139.3" y2="19.5"/>
		<path class="st4" d="M139.4,20.4c-0.1,0.1-0.1,0.3,0,0.4c0,0,0,0,0,0c0.1,0.1,0.3,0.1,0.4,0"/>
		<path class="st4" d="M139.4,20.5c-0.1,0.1-0.1,0.2,0,0.3c0,0,0,0,0,0c0.1,0.1,0.2,0.1,0.3,0c0,0,0,0,0,0"/>
		<polyline class="st4" points="139.8,20.9 140.1,20.5 140.2,20.5 		"/>
		<polyline class="st4" points="139.7,20.8 140.1,20.4 140.1,20.4 		"/>
		<line class="st4" x1="139.4" y1="20.4" x2="139.8" y2="20"/>
		<line class="st4" x1="139.4" y1="20.5" x2="139.9" y2="20.1"/>
		<polygon class="st4" points="135.6,23.7 136.8,23.7 135.6,22.5 		"/>
		<polyline class="st4" points="139.5,18.9 139.5,18.9 140,18.4 		"/>
		<polyline class="st4" points="139.6,18.9 139.6,18.9 140.1,18.4 		"/>
		<polyline class="st4" points="140,18.4 140,18.4 139.6,15.4 		"/>
		<polyline class="st4" points="140.1,18.4 140.1,18.4 139.7,15.4 		"/>
		<path class="st4" d="M139.7,15.4c0.1,0,0.1-0.1,0-0.2c0,0,0,0,0,0c0-0.1-0.1-0.1-0.2,0c-0.1,0-0.1,0.1,0,0.2c0,0,0,0,0.1,0"/>
		<polyline class="st4" points="140.5,19.9 140.5,19.9 140.9,19.4 		"/>
		<polyline class="st4" points="140.4,19.7 140.4,19.7 140.9,19.2 140.9,19.2 		"/>
		<polyline class="st4" points="140.9,19.4 140.9,19.4 143.9,19.8 		"/>
		<line class="st4" x1="140.9" y1="19.2" x2="143.9" y2="19.7"/>
		<path class="st4" d="M143.9,19.8c0,0.1,0.1,0.1,0.2,0.1c0,0,0,0,0,0c0.1,0,0.1-0.1,0.1-0.2c0,0,0,0,0,0c0-0.1-0.1-0.1-0.2-0.1
			c0,0,0,0-0.1,0"/>
	</g>
</g>
</svg>
