<svg id="Layer_1" data-name="Layer 1" xmlns="http://www.w3.org/2000/svg" viewBox="0 0 500 150"><defs><style>.cls-1{opacity:0.5;}.cls-2{opacity:0.25;}.cls-3{fill:#ffc920;}.cls-4{fill:#ffe28f;}.cls-5{fill:none;stroke:#000;stroke-linecap:round;stroke-linejoin:round;stroke-width:0.03px;}</style></defs><title>hivefivelogo-02</title><g class="cls-1"><path d="M29.59,44.87V64.56H45.85V44.87h11V95.42h-11V74.27H29.59V95.42h-11V44.87Z"/><path d="M77.34,44.87V95.42h-11V44.87Z"/><path d="M97.39,95.42,82.65,44.87h12L100,66.4c1.5,5.84,2.89,11.7,4,17.89h.17c1.09-6.05,2.48-12.07,4-17.82l5.53-21.6H125.4L110,95.42Z"/><path d="M157.93,73.79H141.46V86.31h18.45v9.11H130.5V44.87h28.4V54H141.46V64.84h16.47Z"/><path d="M167.41,44.87h28.21V54H178.36V66h16.15v8.94H178.36V95.42h-11Z"/><path d="M214.85,44.87V95.42H203.9V44.87Z"/><path d="M234.9,95.42,220.16,44.87h12l5.35,21.53c1.5,5.84,2.89,11.7,4,17.89h.16c1.09-6.05,2.48-12.07,4-17.82l5.52-21.6h11.75L247.55,95.42Z"/><path d="M295.45,73.79H279V86.31h18.45v9.11H268V44.87h28.39V54H279V64.84h16.48Z"/><path d="M361.64,44.87h11V86.22h18v9.2H361.64Z"/><path d="M408,44.87V95.42H397V44.87Z"/><path d="M417.55,44.87h28.21V54H428.51V66h16.14v8.94H428.51V95.42h-11Z"/><path d="M481.47,73.79H465V86.31h18.46v9.11H454V44.87h28.39V54H465V64.84h16.48Z"/></g><g class="cls-1"><path d="M319,113.85v-9.44h.62l3.15,5.37a33.65,33.65,0,0,1,1.64,3.17l0,0c-.1-1.43-.11-2.47-.11-4v-4.54H325v9.44h-.62l-3.13-5.38a25.8,25.8,0,0,1-1.64-3.17l0,0c.08,1.25.09,2.27.09,4v4.53Z"/><path d="M328.06,105.27a.51.51,0,1,1-1,0,.52.52,0,0,1,.51-.56A.51.51,0,0,1,328.06,105.27Zm-.83,8.58v-6.72h.64v6.72Z"/><path d="M333.38,110.37h0c.16-.21.39-.5.57-.71l2.15-2.53h.77l-2.46,2.8,2.79,3.92h-.78L334,110.36l-.62.7v2.79h-.64V104h.64Z"/><path d="M343,112.2c0,.64,0,1.17.05,1.65h-.59l-.05-1h0a2.32,2.32,0,0,1-2,1.19c-.93,0-2.06-.57-2.06-2.82v-4.05h.64V111c0,1.38.37,2.39,1.57,2.39a1.91,1.91,0,0,0,1.75-1.31,2.57,2.57,0,0,0,.1-.7v-4.29H343Z"/><path d="M345,108.72c0-.68,0-1.08-.06-1.59h.6l0,1.1h0a2.26,2.26,0,0,1,2.07-1.24c.66,0,2.1.37,2.1,2.65v4.21h-.65v-4.1c0-1.14-.38-2.21-1.63-2.21a1.9,1.9,0,0,0-1.78,1.51,2.58,2.58,0,0,0-.07.59v4.21H345Z"/><path d="M352,110.37c0,2.32,1.1,3,2.3,3a3.16,3.16,0,0,0,1.61-.35l.16.51a3.81,3.81,0,0,1-1.86.4c-1.79,0-2.85-1.4-2.85-3.39,0-2.21,1.13-3.6,2.71-3.6,1.94,0,2.34,1.94,2.34,3,0,.17,0,.29,0,.41Zm3.73-.52c0-1.15-.46-2.31-1.75-2.31s-1.84,1.26-1.95,2.31Z"/><path d="M365.56,104v8.37c0,.44,0,1.1.06,1.5H365l-.05-1.16h0a2.23,2.23,0,0,1-2.1,1.31c-1.45,0-2.59-1.28-2.59-3.41,0-2.3,1.25-3.6,2.7-3.6a2,2,0,0,1,1.92,1.09h0V104Zm-.65,5.77a2.81,2.81,0,0,0-.05-.57,1.93,1.93,0,0,0-1.85-1.64c-1.34,0-2.09,1.32-2.09,3,0,1.51.64,2.92,2,2.92a2,2,0,0,0,1.9-1.68,2.27,2.27,0,0,0,.05-.53Z"/><path d="M372.74,110.45c0,2.5-1.5,3.55-2.86,3.55s-2.74-1.25-2.74-3.47S368.49,107,370,107,372.74,108.26,372.74,110.45Zm-4.94.06c0,1.5.81,2.94,2.13,2.94s2.15-1.45,2.15-3c0-1.19-.55-2.93-2.14-2.93S367.8,109.16,367.8,110.51Z"/><path d="M374.33,108.72c0-.68,0-1.08-.06-1.59h.6l0,1.1h0A2.25,2.25,0,0,1,377,107c.67,0,2.11.37,2.11,2.65v4.21h-.65v-4.1c0-1.14-.38-2.21-1.64-2.21a1.91,1.91,0,0,0-1.78,1.51,2.58,2.58,0,0,0-.07.59v4.21h-.64Z"/><path d="M384.44,113.85l-.08-.89h0a2.18,2.18,0,0,1-1.88,1,1.76,1.76,0,0,1-1.83-1.85c0-1.58,1.32-2.46,3.7-2.44v-.2c0-.81-.15-2-1.56-2a2.54,2.54,0,0,0-1.46.45l-.2-.48a3.19,3.19,0,0,1,1.75-.52c1.63,0,2.11,1.18,2.11,2.5v2.79a11.43,11.43,0,0,0,.09,1.57Zm-.13-3.6c-1.18,0-3,.14-3,1.81a1.22,1.22,0,0,0,1.22,1.39,1.76,1.76,0,0,0,1.74-1.33,1.56,1.56,0,0,0,.06-.41Z"/><path d="M386.7,113a2.64,2.64,0,0,0,1.36.43,1.26,1.26,0,0,0,1.44-1.26c0-.7-.37-1.12-1.26-1.54s-1.6-1-1.6-1.86a1.81,1.81,0,0,1,1.94-1.78,2.4,2.4,0,0,1,1.37.41l-.27.52a2,2,0,0,0-1.19-.38,1.12,1.12,0,0,0-1.21,1.13c0,.65.38,1,1.23,1.37s1.64,1,1.64,2A1.91,1.91,0,0,1,388,114a2.86,2.86,0,0,1-1.56-.44Z"/><path d="M394.55,108.72c0-.68,0-1.08-.06-1.59h.6l0,1.09h0a2.1,2.1,0,0,1,2-1.23,1.83,1.83,0,0,1,1.76,1.36h0a2.49,2.49,0,0,1,.68-.89A2,2,0,0,1,401,107c.68,0,2,.4,2,2.72v4.14h-.65v-4c0-1.34-.46-2.27-1.57-2.27a1.77,1.77,0,0,0-1.59,1.32,2.71,2.71,0,0,0-.09.67v4.32h-.65v-4.3c0-1.12-.46-2-1.5-2a1.85,1.85,0,0,0-1.67,1.49,2.53,2.53,0,0,0-.08.63v4.19h-.64Z"/><path d="M409.68,112.2c0,.64,0,1.17.06,1.65h-.6l-.05-1h0a2.32,2.32,0,0,1-2,1.19c-.93,0-2.07-.57-2.07-2.82v-4.05h.65V111c0,1.38.37,2.39,1.56,2.39a1.91,1.91,0,0,0,1.75-1.31,2.57,2.57,0,0,0,.11-.7v-4.29h.64Z"/><path d="M411.74,104h.65v9.87h-.65Z"/><path d="M415.42,105.23v1.9h1.72v.53h-1.72v4.44c0,.88.28,1.33.91,1.33a2.05,2.05,0,0,0,.65-.09l.08.5a2.18,2.18,0,0,1-.83.14,1.32,1.32,0,0,1-1.08-.45,2.43,2.43,0,0,1-.37-1.58v-4.29h-1v-.53h1v-1.67Z"/><path d="M421.79,113.85l-.09-.89h0a2.2,2.2,0,0,1-1.88,1,1.76,1.76,0,0,1-1.83-1.85c0-1.58,1.32-2.46,3.69-2.44v-.2c0-.81-.14-2-1.55-2a2.57,2.57,0,0,0-1.47.45l-.19-.48a3.14,3.14,0,0,1,1.75-.52c1.63,0,2.11,1.18,2.11,2.5v2.79a11.46,11.46,0,0,0,.08,1.57Zm-.14-3.6c-1.18,0-3,.14-3,1.81a1.22,1.22,0,0,0,1.22,1.39,1.77,1.77,0,0,0,1.74-1.33,1.53,1.53,0,0,0,0-.41Z"/><path d="M422.7,116.22a1.83,1.83,0,0,0,1.26-.58c.32-.42.45-1,.45-2.63v-5.88h.65v6.28a3.61,3.61,0,0,1-.67,2.62,2.4,2.4,0,0,1-1.58.71Zm2.55-11a.52.52,0,0,1-.53.56.52.52,0,0,1-.5-.56.53.53,0,0,1,.53-.56A.51.51,0,0,1,425.25,105.27Z"/><path d="M427.11,108.72c0-.68,0-1.08-.06-1.59h.6l.05,1.1h0a2.26,2.26,0,0,1,2.07-1.24c.66,0,2.1.37,2.1,2.65v4.21h-.65v-4.1c0-1.14-.38-2.21-1.63-2.21a1.9,1.9,0,0,0-1.78,1.51,2.58,2.58,0,0,0-.07.59v4.21h-.65Z"/><path d="M441.53,104v8.37c0,.44,0,1.1.06,1.5H441l-.05-1.16h0a2.23,2.23,0,0,1-2.1,1.31c-1.44,0-2.59-1.28-2.59-3.41,0-2.3,1.25-3.6,2.71-3.6a2.06,2.06,0,0,1,1.92,1.09h0V104Zm-.64,5.77a3.77,3.77,0,0,0-.05-.57,2,2,0,0,0-1.86-1.64c-1.33,0-2.09,1.32-2.09,3,0,1.51.65,2.92,2.05,2.92a2,2,0,0,0,1.89-1.68,2.26,2.26,0,0,0,.06-.53Z"/><path d="M448.71,110.45c0,2.5-1.5,3.55-2.86,3.55s-2.74-1.25-2.74-3.47S444.46,107,446,107,448.71,108.26,448.71,110.45Zm-4.94.06c0,1.5.81,2.94,2.13,2.94s2.15-1.45,2.15-3c0-1.19-.54-2.93-2.13-2.93S443.77,109.16,443.77,110.51Z"/><path d="M450.3,108.72c0-.68,0-1.08-.06-1.59h.6l0,1.1h0A2.25,2.25,0,0,1,453,107c.66,0,2.1.37,2.1,2.65v4.21h-.65v-4.1c0-1.14-.38-2.21-1.64-2.21a1.9,1.9,0,0,0-1.77,1.51,2.12,2.12,0,0,0-.07.59v4.21h-.65Z"/><path d="M460.41,113.85l-.08-.89h0a2.16,2.16,0,0,1-1.87,1,1.76,1.76,0,0,1-1.83-1.85c0-1.58,1.32-2.46,3.69-2.44v-.2c0-.81-.15-2-1.55-2a2.55,2.55,0,0,0-1.47.45l-.2-.48a3.2,3.2,0,0,1,1.76-.52c1.63,0,2.11,1.18,2.11,2.5v2.79a11.46,11.46,0,0,0,.08,1.57Zm-.13-3.6c-1.18,0-3,.14-3,1.81a1.21,1.21,0,0,0,1.21,1.39,1.76,1.76,0,0,0,1.74-1.33,1.56,1.56,0,0,0,.06-.41Z"/><path d="M467.09,113.59a3.73,3.73,0,0,1-1.71.39c-1.75,0-2.93-1.34-2.93-3.43s1.27-3.56,3.15-3.56a3,3,0,0,1,1.51.36l-.23.55a2.64,2.64,0,0,0-1.36-.34c-1.62,0-2.41,1.43-2.41,3,0,1.77,1,2.89,2.38,2.89a3.12,3.12,0,0,0,1.43-.34Z"/><path d="M473.58,110.45c0,2.5-1.5,3.55-2.86,3.55s-2.74-1.25-2.74-3.47,1.35-3.54,2.84-3.54S473.58,108.26,473.58,110.45Zm-4.94.06c0,1.5.81,2.94,2.13,2.94s2.15-1.45,2.15-3c0-1.19-.54-2.93-2.13-2.93S468.64,109.16,468.64,110.51Z"/><path d="M473.55,116.22a1.83,1.83,0,0,0,1.26-.58c.32-.42.45-1,.45-2.63v-5.88h.65v6.28a3.66,3.66,0,0,1-.66,2.62,2.44,2.44,0,0,1-1.59.71Zm2.55-11a.52.52,0,0,1-.53.56.52.52,0,0,1-.5-.56.53.53,0,0,1,.53-.56A.51.51,0,0,1,476.1,105.27Z"/><path d="M478,108.72c0-.68,0-1.08,0-1.59h.59l.05,1.1h0a2.26,2.26,0,0,1,2.07-1.24c.66,0,2.1.37,2.1,2.65v4.21h-.65v-4.1c0-1.14-.38-2.21-1.63-2.21a1.9,1.9,0,0,0-1.78,1.51,2.58,2.58,0,0,0-.07.59v4.21H478Z"/><path d="M484.48,113.39a.56.56,0,0,1,.55-.62.62.62,0,1,1-.55.62Z"/></g><g class="cls-2"><g id="ARC"><path d="M323.14,84.39a11.77,11.77,0,0,0-9.4-9.5c-.07.37-.13.72-.17,1.07a11.23,11.23,0,0,0,8.51,8.59A10.07,10.07,0,0,0,323.14,84.39Zm31.38,1.69A15.73,15.73,0,1,1,323.07,86a10.21,10.21,0,0,1-7.66-1.38L302.05,95.9l11.4-13.26A10.26,10.26,0,0,1,312.12,75a15.73,15.73,0,1,1,15.82-15.69c3.66-.62,6.71.28,8.69,2.24a.47.47,0,0,0,.1.1v0c1.93,2,2.8,5,2.15,8.68A15.72,15.72,0,0,1,354.52,86.08ZM337.86,98.59a12.58,12.58,0,1,0,1.87-25.09,11.62,11.62,0,0,0-1.77,0,21.61,21.61,0,0,1-11.71,11.62A12.58,12.58,0,0,0,337.86,98.59ZM331.46,80l.44-.41a37,37,0,0,1-13.29-13.39c-.32.33-.63.68-.93,1a19,19,0,0,0-3,4.67h0a14.89,14.89,0,0,1,11.44,11.56l.32-.14A19.55,19.55,0,0,0,331.46,80Zm2.58-2.8a20.4,20.4,0,0,0,1.28-1.9,18.16,18.16,0,0,0,1-1.91,14.88,14.88,0,0,1-11.46-11.53,17.88,17.88,0,0,0-2.55,1.35q-.65.4-1.26.87A33.89,33.89,0,0,0,334,77.19Zm3.24-6.82a2.21,2.21,0,0,1,.05-.25,10.05,10.05,0,0,0-.13-4.57,6.72,6.72,0,0,0-1.64-2.88,6.82,6.82,0,0,0-3.39-1.8,10.6,10.6,0,0,0-4.31,0A11.74,11.74,0,0,0,337.28,70.37Zm-26,1.42a13.07,13.07,0,0,0,1.77,0,21.59,21.59,0,0,1,11.71-11.61,12.58,12.58,0,1,0-13.48,11.61Z"/><path class="cls-3" d="M331.9,79.58l-.44.41a19.55,19.55,0,0,1-5,3.31l-.32.14a14.89,14.89,0,0,0-11.44-11.56h0a19,19,0,0,1,3-4.67c.3-.35.61-.7.93-1A37,37,0,0,0,331.9,79.58Z"/><path d="M350.22,51h0a8.67,8.67,0,0,0-.53-.81h0l-1.05,1.05h0a.47.47,0,0,0,0,.67.46.46,0,0,0,.67,0h0ZM347,48h0a7.88,7.88,0,1,0,3.32,3.36l-.85.85h0a.79.79,0,0,1-1.11,0,.78.78,0,0,1,0-1.11h0L349.49,50h0a7.22,7.22,0,0,0-1.1-1.11h0l-1.09,1.08h0a.78.78,0,0,1-1.11-1.11h0Zm.28.15-.92.92h0a.47.47,0,0,0,.67.67h0l1.05-1h0a8,8,0,0,0-.8-.54Zm1.67-.79v0a9.21,9.21,0,0,1,2,2l1.25-1.24h0l7.58,1.12a.31.31,0,0,1,.54.08.3.3,0,0,1-.17.4.31.31,0,0,1-.41-.17l-7.42-1.09v0l-1.18,1.16a9.43,9.43,0,0,1-13.18,13,9.14,9.14,0,0,1-1.27-1v0l-.1-.1a9.43,9.43,0,0,1,12.1-14.36L349.91,46h0l-1-7.44a.31.31,0,1,1,.36-.48.31.31,0,0,1-.05.44l1.05,7.58h0Z"/><path class="cls-3" d="M335.32,75.29a20.4,20.4,0,0,1-1.28,1.9,33.89,33.89,0,0,1-13-13.12q.62-.46,1.26-.87a17.88,17.88,0,0,1,2.55-1.35A14.88,14.88,0,0,0,336.3,73.38,18.16,18.16,0,0,1,335.32,75.29Z"/><path class="cls-3" d="M350.33,58.59A7.86,7.86,0,1,1,347,48h0l-.85.85h0a.78.78,0,0,0,1.11,1.11h0l1.09-1.08h0a7.22,7.22,0,0,1,1.1,1.11h0l-1.09,1.07h0a.78.78,0,0,0,0,1.11.79.79,0,0,0,1.11,0h0l.85-.85A7.85,7.85,0,0,1,350.33,58.59Zm-2.82-1a.5.5,0,1,0,0-.79h-1.23a.78.78,0,1,0-.29,1.07.81.81,0,0,0,.29-.29Zm-8.6,1.79,3.19-.14-3-3.05Zm2.64-6a.77.77,0,0,0,.29-1.07.86.86,0,0,0-.28-.29V50.79a.5.5,0,0,0-.07-.7.49.49,0,0,0-.7.07.51.51,0,0,0,0,.61V52a.78.78,0,0,0,.78,1.36Z"/><path class="cls-3" d="M337.33,70.12a2.21,2.21,0,0,0-.05.25,11.74,11.74,0,0,1-9.42-9.48,10.6,10.6,0,0,1,4.31,0,6.82,6.82,0,0,1,3.39,1.8,6.72,6.72,0,0,1,1.64,2.88A10.05,10.05,0,0,1,337.33,70.12Z"/><path class="cls-3" d="M323.14,84.39a10.07,10.07,0,0,1-1.06.16A11.23,11.23,0,0,1,313.57,76c0-.35.1-.7.17-1.07A11.77,11.77,0,0,1,323.14,84.39Z"/><path d="M348.2,57.46a.49.49,0,0,1-.69.1h-1.24a.81.81,0,0,1-.29.29.79.79,0,1,1,.29-1.07h1.23a.49.49,0,0,1,.7.69Z"/><polygon points="342.1 59.21 338.91 59.35 339.07 56.16 342.1 59.21"/><path class="cls-4" d="M350.22,51l-.93.91h0a.46.46,0,0,1-.67,0,.47.47,0,0,1,0-.67h0l1.05-1.05h0a8.67,8.67,0,0,1,.53.81Z"/><path class="cls-4" d="M348.13,48.67l-1.05,1h0a.47.47,0,0,1-.67-.67h0l.92-.92h0a8,8,0,0,1,.8.54Z"/><path d="M341.84,52.3a.78.78,0,1,1-1.07-.29V50.77a.51.51,0,0,1,0-.61.49.49,0,0,1,.7-.07.5.5,0,0,1,.07.7V52A.86.86,0,0,1,341.84,52.3Z"/><path class="cls-5" d="M312.12,75a10.26,10.26,0,0,0,1.33,7.67"/><path class="cls-5" d="M315.41,84.62A10.21,10.21,0,0,0,323.07,86"/><path class="cls-5" d="M326.25,85.11A21.61,21.61,0,0,0,338,73.49"/><path class="cls-5" d="M336.73,61.62l-.1-.1c-2-2-5-2.86-8.69-2.24"/><path class="cls-5" d="M338.89,70.32c.65-3.64-.22-6.69-2.15-8.68"/><path class="cls-5" d="M324.76,60.18a21.59,21.59,0,0,0-11.71,11.61"/><path class="cls-5" d="M313.74,74.89c-.07.37-.13.72-.17,1.07"/><path class="cls-5" d="M322.08,84.55a10.07,10.07,0,0,0,1.06-.16"/><path class="cls-5" d="M326.16,83.44l.32-.14a19.55,19.55,0,0,0,5-3.31l.44-.41"/><path class="cls-5" d="M334,77.19a20.4,20.4,0,0,0,1.28-1.9,18.16,18.16,0,0,0,1-1.91"/><path class="cls-5" d="M337.28,70.37a2.21,2.21,0,0,1,.05-.25,10.05,10.05,0,0,0-.13-4.57,6.72,6.72,0,0,0-1.64-2.88,6.82,6.82,0,0,0-3.39-1.8,10.6,10.6,0,0,0-4.31,0"/><path class="cls-5" d="M324.84,61.85a17.88,17.88,0,0,0-2.55,1.35q-.65.4-1.26.87"/><path class="cls-5" d="M318.61,66.19c-.32.33-.63.68-.93,1a19,19,0,0,0-3,4.67"/><path class="cls-5" d="M348.74,47.16h0a9.43,9.43,0,0,0-12.1,14.36.47.47,0,0,0,.1.1v0a9.14,9.14,0,0,0,1.27,1,9.43,9.43,0,0,0,13.18-13v0"/><path class="cls-5" d="M351,49.36h0a9.21,9.21,0,0,0-2-2"/><path class="cls-5" d="M348.13,48.66a8,8,0,0,0-.8-.54"/><path class="cls-5" d="M347,48a7.88,7.88,0,1,0,3.32,3.36h0"/><path class="cls-5" d="M350.21,51a8.67,8.67,0,0,0-.53-.81"/><path class="cls-5" d="M349.48,50a7.22,7.22,0,0,0-1.1-1.11h0"/><path class="cls-5" d="M327.86,60.89a11.74,11.74,0,0,0,9.42,9.48"/><path class="cls-5" d="M324.84,61.85A14.88,14.88,0,0,0,336.3,73.38"/><path class="cls-5" d="M346.18,48.82a.78.78,0,0,0,1.11,1.11"/><path class="cls-5" d="M346.4,49a.47.47,0,0,0,.67.67"/><line class="cls-5" x1="302.05" y1="95.9" x2="313.45" y2="82.64"/><line class="cls-5" x1="302.05" y1="95.9" x2="315.41" y2="84.62"/><path class="cls-5" d="M327.94,59.28A15.73,15.73,0,1,0,312.12,75"/><path class="cls-5" d="M324.76,60.18a12.58,12.58,0,1,0-13.48,11.61,13.07,13.07,0,0,0,1.77,0"/><path class="cls-5" d="M323.14,84.39h0a11.77,11.77,0,0,0-9.4-9.5h0"/><path class="cls-5" d="M326.16,83.44a14.89,14.89,0,0,0-11.44-11.56"/><path class="cls-5" d="M323.07,86a15.73,15.73,0,1,0,15.82-15.68"/><path class="cls-5" d="M326.25,85.11A12.58,12.58,0,1,0,339.73,73.5a11.62,11.62,0,0,0-1.77,0"/><path class="cls-5" d="M321,64.07a33.89,33.89,0,0,0,13,13.12"/><path class="cls-5" d="M318.61,66.19A37,37,0,0,0,331.9,79.58"/><path class="cls-5" d="M313.57,76a11.23,11.23,0,0,0,8.51,8.59"/><line class="cls-5" x1="314.72" y1="71.89" x2="314.72" y2="71.88"/><path class="cls-5" d="M346.27,56.77a.78.78,0,1,0-.29,1.07.81.81,0,0,0,.29-.29"/><line class="cls-5" x1="346.27" y1="56.77" x2="347.5" y2="56.77"/><line class="cls-5" x1="347.51" y1="57.56" x2="346.27" y2="57.55"/><path class="cls-5" d="M347.51,57.56a.5.5,0,1,0,0-.79"/><path class="cls-5" d="M340.77,52a.78.78,0,1,0,1.07.29.86.86,0,0,0-.28-.29"/><line class="cls-5" x1="341.56" y1="52.01" x2="341.56" y2="50.79"/><line class="cls-5" x1="340.77" y1="50.77" x2="340.77" y2="52.01"/><path class="cls-5" d="M341.56,50.79a.5.5,0,0,0-.07-.7.49.49,0,0,0-.7.07.51.51,0,0,0,0,.61"/><polyline class="cls-5" points="346.19 48.82 347.04 47.97 347.06 47.96"/><polyline class="cls-5" points="346.4 49.04 347.32 48.12 347.33 48.11"/><line class="cls-5" x1="347.29" y1="49.94" x2="348.38" y2="48.86"/><line class="cls-5" x1="347.08" y1="49.72" x2="348.13" y2="48.67"/><path class="cls-5" d="M348.4,51.05a.78.78,0,0,0,0,1.11.79.79,0,0,0,1.11,0"/><path class="cls-5" d="M348.62,51.27a.47.47,0,0,0,0,.67.46.46,0,0,0,.67,0"/><polyline class="cls-5" points="349.51 52.17 350.37 51.32 350.38 51.31"/><polyline class="cls-5" points="349.29 51.95 350.22 51.04 350.22 51.03"/><line class="cls-5" x1="348.4" y1="51.05" x2="349.49" y2="49.98"/><line class="cls-5" x1="348.62" y1="51.27" x2="349.67" y2="50.22"/><polygon class="cls-5" points="338.91 59.35 342.1 59.21 339.07 56.16 338.91 59.35"/><polyline class="cls-5" points="348.73 47.16 348.73 47.16 349.9 45.99"/><polyline class="cls-5" points="348.97 47.35 348.99 47.33 350.25 46.09"/><polyline class="cls-5" points="349.92 45.99 349.92 45.99 348.89 38.55"/><polyline class="cls-5" points="350.25 46.11 350.25 46.09 349.2 38.51"/><path class="cls-5" d="M349.2,38.51a.31.31,0,0,0,.05-.44.31.31,0,1,0-.36.48"/><polyline class="cls-5" points="351.19 49.64 351.19 49.64 352.37 48.48"/><polyline class="cls-5" points="350.97 49.37 350.99 49.35 352.24 48.11 352.24 48.1"/><polyline class="cls-5" points="352.36 48.46 352.37 48.46 359.79 49.55"/><line class="cls-5" x1="352.25" y1="48.12" x2="359.83" y2="49.24"/><path class="cls-5" d="M359.79,49.55a.31.31,0,0,0,.41.17.3.3,0,0,0,.17-.4.31.31,0,0,0-.54-.08"/></g></g></svg>