<svg xmlns="http://www.w3.org/2000/svg" viewBox="0 0 500 150"><defs><style>.a{opacity:0.5;}.b{opacity:0.25;}.c{fill:#ffc920;}.d{fill:#ffcf6e;}.e{fill:none;stroke:#000;stroke-miterlimit:10;stroke-width:0.3px;}</style></defs><title>hivefivelogo</title><g class="a"><path d="M30,45.36V63.3H47.36V45.36H57.89V92.05H47.36V72.52H30V92.05H19.37V45.36Z"/><path d="M77.7,45.36V92.05H67.1V45.36Z"/><path d="M97.85,92.05l-15-46.69H94.46l5.68,19.74c1.59,5.55,3,10.88,4.15,16.7h.21c1.18-5.61,2.63-11.15,4.23-16.49l6-20h11.22L110.18,92.05Z"/><path d="M158.67,72.31H141.49V83.39h19.19v8.66H130.89V45.36h28.82V54H141.49v9.7h17.18Z"/><path d="M167.88,45.36h28.54V54H178.48V64.69h16.77v8.59H178.48V92.05h-10.6Z"/><path d="M215,45.36V92.05h-10.6V45.36Z"/><path d="M235.14,92.05l-15-46.69h11.57l5.68,19.74c1.59,5.55,3,10.88,4.16,16.7h.2c1.18-5.61,2.64-11.15,4.23-16.49l6-20H263.2L247.47,92.05Z"/><path d="M296,72.31H278.78V83.39H298v8.66H268.18V45.36H297V54H278.78v9.7H296Z"/><path d="M361.14,45.36h10.6V83.18h18.57v8.87H361.14Z"/><path d="M407.14,45.36V92.05h-10.6V45.36Z"/><path d="M416.28,45.36h28.54V54H426.88V64.69h16.76v8.59H426.88V92.05h-10.6Z"/><path d="M480.56,72.31H463.38V83.39h19.19v8.66H452.79V45.36H481.6V54H463.38v9.7h17.18Z"/></g><g class="b"><path d="M316.52,72.22q-.12.57-.18,1.11a11.64,11.64,0,0,0,8.86,8.86c.36,0,.73-.1,1.09-.17A12.17,12.17,0,0,0,316.52,72.22Zm42.3,11.42a16.3,16.3,0,0,1-32.59,0,10.6,10.6,0,0,1-7.94-1.4L304.5,94l11.75-13.79a10.6,10.6,0,0,1-1.41-7.94A16.3,16.3,0,1,1,331.17,56c3.81-.66,7,.27,9.05,2.33h0c2.06,2.06,3,5.24,2.33,9.05A16.3,16.3,0,0,1,358.82,83.64Zm-17.21,13a13,13,0,0,0,1.83-26,14,14,0,0,0-1.83,0,22.38,22.38,0,0,1-12.09,12.09A13,13,0,0,0,341.61,96.67ZM334.9,77.43l.45-.43a38.36,38.36,0,0,1-13.82-13.81c-.33.34-.66.7-1,1.06a20.22,20.22,0,0,0-3,4.85h0A15.42,15.42,0,0,1,329.42,81l.33-.14A20.29,20.29,0,0,0,334.9,77.43Zm2.66-2.92a20.51,20.51,0,0,0,1.32-2,17.51,17.51,0,0,0,1-2A15.42,15.42,0,0,1,328,58.66a19.26,19.26,0,0,0-2.64,1.41c-.44.28-.87.58-1.3.91A35.07,35.07,0,0,0,337.56,74.51Zm3.32-7.08a2,2,0,0,0,.05-.26,10.46,10.46,0,0,0-.14-4.73,6.71,6.71,0,0,0-5.24-4.83,11.07,11.07,0,0,0-4.47,0A12.17,12.17,0,0,0,340.88,67.43ZM314,69a12.42,12.42,0,0,0,1.83,0,22.32,22.32,0,0,1,12.09-12.09A13,13,0,1,0,314,69Z"/><path class="c" d="M335.35,77l-.45.43a20.29,20.29,0,0,1-5.15,3.45l-.33.14a15.42,15.42,0,0,0-11.9-11.92h0a20.22,20.22,0,0,1,3-4.85c.31-.36.64-.72,1-1.06A38.36,38.36,0,0,0,335.35,77Z"/><path class="c" d="M338.88,72.54a20.51,20.51,0,0,1-1.32,2A35.07,35.07,0,0,1,324,61c.43-.33.86-.63,1.3-.91A19.26,19.26,0,0,1,328,58.66a15.42,15.42,0,0,0,11.92,11.9A17.51,17.51,0,0,1,338.88,72.54Z"/><path class="c" d="M354.36,55.17a8.15,8.15,0,1,1-3.46-11l-.88.88a.82.82,0,0,0,0,1.16.81.81,0,0,0,1.15,0l1.12-1.13a8.92,8.92,0,0,1,1.15,1.15l-1.12,1.13a.81.81,0,1,0,1.15,1.15l.89-.88A8.14,8.14,0,0,1,354.36,55.17Zm-2.93-1.06a.51.51,0,1,0,0-.81h-1.27a.81.81,0,1,0-.29,1.11.76.76,0,0,0,.29-.3Zm-6.19-4.31a.81.81,0,0,0,.3-1.11,1,1,0,0,0-.3-.3V47.12a.51.51,0,1,0-.82,0v1.28a.82.82,0,1,0,.82,1.41Z"/><path d="M354.05,44.49a9.78,9.78,0,0,1-13.83,13.83h0a9.78,9.78,0,1,1,13.83-13.82ZM343.37,58.63a8.15,8.15,0,0,0,11-11l-.89.88a.81.81,0,1,1-1.15-1.15l1.12-1.13a8.92,8.92,0,0,0-1.15-1.15l-1.12,1.13a.81.81,0,0,1-1.15,0,.82.82,0,0,1,0-1.16l.88-.88a8.15,8.15,0,1,0-7.53,14.45Zm9.87-10.34,1-.95a6.7,6.7,0,0,0-.56-.83l-1.09,1.09a.49.49,0,1,0,.69.69Zm-2.3-2.3,1.09-1.1a8,8,0,0,0-.83-.55l-.95,1a.48.48,0,0,0,0,.69A.5.5,0,0,0,350.94,46Z"/><path class="c" d="M340.93,67.17a2,2,0,0,1-.05.26,12.17,12.17,0,0,1-9.8-9.77,11.07,11.07,0,0,1,4.47,0,6.71,6.71,0,0,1,5.24,4.83A10.46,10.46,0,0,1,340.93,67.17Z"/><path class="c" d="M326.29,82c-.36.07-.73.13-1.09.17a11.64,11.64,0,0,1-8.86-8.86q.06-.54.18-1.11A12.17,12.17,0,0,1,326.29,82Z"/><path d="M352.15,54a.51.51,0,0,1-.72.1h-1.29a.76.76,0,0,1-.29.3.82.82,0,1,1,.29-1.11h1.27a.52.52,0,0,1,.74.71Z"/><path class="d" d="M354.2,47.34l-1,.95a.49.49,0,1,1-.69-.69l1.09-1.09A6.7,6.7,0,0,1,354.2,47.34Z"/><path class="d" d="M352,44.89,350.94,46a.5.5,0,0,1-.7,0,.48.48,0,0,1,0-.69l.95-1A8,8,0,0,1,352,44.89Z"/><path d="M345.54,48.69a.81.81,0,0,1-.3,1.11.82.82,0,1,1-.82-1.41V47.11a.52.52,0,1,1,.82,0v1.27A1,1,0,0,1,345.54,48.69Z"/><path class="e" d="M314.84,72.31a10.6,10.6,0,0,0,1.41,7.94"/><path class="e" d="M318.29,82.29a10.6,10.6,0,0,0,7.94,1.4"/><path class="e" d="M329.52,82.75a22.38,22.38,0,0,0,12.09-12.09"/><path class="e" d="M340.22,58.31c-2.06-2.06-5.24-3-9.05-2.33"/><path class="e" d="M342.55,67.37c.67-3.81-.27-7-2.33-9.05"/><path class="e" d="M327.88,56.93A22.32,22.32,0,0,0,315.79,69"/><path class="e" d="M316.52,72.22h0q-.12.57-.18,1.11"/><path class="e" d="M325.2,82.19c.36,0,.73-.1,1.09-.17"/><path class="e" d="M329.42,81l.33-.14a20.29,20.29,0,0,0,5.15-3.45l.45-.43"/><path class="e" d="M337.56,74.51a20.51,20.51,0,0,0,1.32-2,17.51,17.51,0,0,0,1-2"/><path class="e" d="M340.88,67.43a2,2,0,0,0,.05-.26,10.46,10.46,0,0,0-.14-4.73,6.71,6.71,0,0,0-5.24-4.83,11.07,11.07,0,0,0-4.47,0"/><path class="e" d="M328,58.66a19.26,19.26,0,0,0-2.64,1.41c-.44.28-.87.58-1.3.91"/><path class="e" d="M321.53,63.19c-.33.34-.66.7-1,1.06a20.22,20.22,0,0,0-3,4.85"/><path class="e" d="M350.94,46a.5.5,0,0,1-.7,0,.48.48,0,0,1,0-.69l.95-1a8,8,0,0,1,.83.55Z"/><path class="e" d="M353.24,48.29a.49.49,0,1,1-.69-.69l1.09-1.09a6.7,6.7,0,0,1,.56.83Z"/><path class="e" d="M353.47,48.52a.81.81,0,1,1-1.15-1.15l1.12-1.13a8.92,8.92,0,0,0-1.15-1.15l-1.12,1.13a.81.81,0,0,1-1.15,0,.82.82,0,0,1,0-1.16l.88-.88a8.15,8.15,0,1,0,3.46,3.46Z"/><path class="e" d="M331.08,57.66a12.17,12.17,0,0,0,9.8,9.77"/><path class="e" d="M328,58.66a15.42,15.42,0,0,0,11.92,11.9"/><line class="e" x1="304.5" y1="94.04" x2="316.25" y2="80.25"/><line class="e" x1="304.5" y1="94.04" x2="318.29" y2="82.29"/><path class="e" d="M331.17,56a16.3,16.3,0,1,0-16.33,16.33"/><path class="e" d="M327.88,56.93A13,13,0,1,0,314,69a12.42,12.42,0,0,0,1.83,0"/><path class="e" d="M326.29,82a12.17,12.17,0,0,0-9.77-9.8"/><path class="e" d="M329.42,81a15.42,15.42,0,0,0-11.9-11.92"/><path class="e" d="M326.23,83.69a16.3,16.3,0,1,0,16.32-16.32"/><path class="e" d="M329.52,82.75a13,13,0,1,0,13.92-12.09,14,14,0,0,0-1.83,0"/><path class="e" d="M324,61a35.07,35.07,0,0,0,13.54,13.53"/><path class="e" d="M321.53,63.19A38.36,38.36,0,0,0,335.35,77"/><path class="e" d="M316.34,73.33a11.64,11.64,0,0,0,8.86,8.86"/><line class="e" x1="317.52" y1="69.1" x2="317.52" y2="69.1"/><path class="e" d="M350.14,53.3a.81.81,0,1,0-.29,1.11.76.76,0,0,0,.29-.3"/><line class="e" x1="350.14" y1="53.3" x2="351.41" y2="53.3"/><line class="e" x1="351.43" y1="54.11" x2="350.14" y2="54.11"/><path class="e" d="M351.43,54.11a.51.51,0,1,0,0-.81"/><path class="e" d="M344.42,48.39a.82.82,0,1,0,.82,1.41.81.81,0,0,0,.3-1.11,1,1,0,0,0-.3-.3"/><line class="e" x1="345.24" y1="48.39" x2="345.24" y2="47.12"/><line class="e" x1="344.42" y1="47.11" x2="344.42" y2="48.39"/><path class="e" d="M345.24,47.12a.51.51,0,1,0-.82,0"/><path class="e" d="M340.22,58.31a9.78,9.78,0,1,1,13.83,0,9.77,9.77,0,0,1-13.83,0Z"/></g><g class="a"><path d="M215.51,111.31V98.86h3.29l2.59,4.56a34.77,34.77,0,0,1,2,4.27h.06a45.1,45.1,0,0,1-.24-5.19V98.86h2.59v12.45h-3l-2.66-4.8a46.06,46.06,0,0,1-2.16-4.4l-.06,0c.07,1.64.11,3.4.11,5.43v3.75Z"/><path d="M231.12,99.76a1.41,1.41,0,0,1-1.51,1.41,1.42,1.42,0,1,1,0-2.83A1.4,1.4,0,0,1,231.12,99.76Zm-2.9,11.55v-9H231v9Z"/><path d="M239.82,106.08h0c.2-.37.43-.74.65-1.09l1.83-2.72h3.38l-3.24,3.66,3.7,5.38h-3.45l-2.19-3.71-.72.88v2.83H237V98.19h2.8Z"/><path d="M255.55,108.41c0,1.18,0,2.14.07,2.9h-2.44l-.13-1.27H253a3.26,3.26,0,0,1-2.83,1.47c-1.83,0-3.18-1.14-3.18-3.93v-5.31h2.83v4.86c0,1.32.42,2.11,1.4,2.11a1.51,1.51,0,0,0,1.41-1,1.63,1.63,0,0,0,.09-.61v-5.38h2.83Z"/><path d="M257.8,105.16c0-1.13,0-2.09-.08-2.89h2.44l.13,1.24h.06a3.31,3.31,0,0,1,2.79-1.44c1.84,0,3.23,1.22,3.23,3.88v5.36h-2.81v-5c0-1.16-.41-2-1.42-2a1.49,1.49,0,0,0-1.42,1.06,1.76,1.76,0,0,0-.12.7v5.21h-2.8Z"/><path d="M270.78,107.69c.1,1.16,1.24,1.72,2.55,1.72a8,8,0,0,0,2.5-.37l.37,1.9a8.92,8.92,0,0,1-3.27.56c-3.07,0-4.83-1.78-4.83-4.61a4.53,4.53,0,0,1,4.57-4.82c2.92,0,4,2.27,4,4.51a6.17,6.17,0,0,1-.1,1.11Zm3.31-1.92a1.63,1.63,0,0,0-1.59-1.83,1.85,1.85,0,0,0-1.74,1.83Z"/><path d="M290.86,98.19v10.42c0,1,0,2.09.08,2.7h-2.5l-.13-1.33h0a3.16,3.16,0,0,1-2.83,1.53c-2.14,0-3.86-1.83-3.86-4.63,0-3,1.88-4.81,4-4.81a2.76,2.76,0,0,1,2.39,1h0v-4.9Zm-2.81,7.91a4.19,4.19,0,0,0,0-.5,1.7,1.7,0,0,0-1.65-1.39c-1.27,0-1.94,1.15-1.94,2.57s.76,2.5,1.92,2.5a1.65,1.65,0,0,0,1.63-1.35,2.24,2.24,0,0,0,.07-.65Z"/><path d="M302,106.69a4.53,4.53,0,0,1-4.77,4.82,4.42,4.42,0,0,1-4.67-4.65,4.51,4.51,0,0,1,4.82-4.79A4.39,4.39,0,0,1,302,106.69Zm-6.54.09c0,1.56.64,2.72,1.85,2.72s1.79-1.09,1.79-2.72c0-1.35-.52-2.71-1.79-2.71S295.5,105.45,295.5,106.78Z"/><path d="M303.77,105.16c0-1.13,0-2.09-.07-2.89h2.44l.13,1.24h.05a3.32,3.32,0,0,1,2.79-1.44c1.85,0,3.24,1.22,3.24,3.88v5.36h-2.81v-5c0-1.16-.41-2-1.42-2a1.51,1.51,0,0,0-1.43,1.06,2,2,0,0,0-.11.7v5.21h-2.81Z"/><path d="M319.73,111.31l-.16-.9h-.06a3.24,3.24,0,0,1-2.59,1.1,2.77,2.77,0,0,1-2.91-2.77c0-2.34,2.1-3.47,5.3-3.45v-.13c0-.48-.26-1.17-1.65-1.17a5.07,5.07,0,0,0-2.49.69l-.52-1.81a7.36,7.36,0,0,1,3.51-.8c3,0,4,1.78,4,3.9v3.14a13.13,13.13,0,0,0,.13,2.2ZM319.4,107c-1.48,0-2.62.34-2.62,1.42a1,1,0,0,0,1.11,1.08,1.55,1.55,0,0,0,1.46-1,2.44,2.44,0,0,0,0-.48Z"/><path d="M324.33,108.85a5.43,5.43,0,0,0,2.42.69c.85,0,1.2-.3,1.2-.76s-.27-.68-1.33-1c-1.86-.62-2.58-1.64-2.57-2.71,0-1.68,1.45-3,3.68-3a6,6,0,0,1,2.55.52l-.5,1.94a4.41,4.41,0,0,0-1.95-.52c-.69,0-1.08.28-1.08.74s.35.65,1.46,1c1.72.59,2.44,1.46,2.46,2.79,0,1.68-1.33,2.92-3.92,2.92a6.42,6.42,0,0,1-2.92-.63Z"/><path d="M336.1,105.16c0-1.13,0-2.09-.07-2.89h2.36l.13,1.22h.06a3.12,3.12,0,0,1,2.73-1.42,2.57,2.57,0,0,1,2.48,1.54h0a4,4,0,0,1,1.17-1.1,3.31,3.31,0,0,1,1.72-.44c1.73,0,3,1.22,3,3.92v5.32H347V106.4c0-1.32-.43-2.07-1.33-2.07a1.36,1.36,0,0,0-1.29,1,2.23,2.23,0,0,0-.11.73v5.28h-2.74v-5.06c0-1.15-.41-1.92-1.29-1.92a1.44,1.44,0,0,0-1.32,1,1.9,1.9,0,0,0-.11.7v5.27H336.1Z"/><path d="M360.5,108.41c0,1.18,0,2.14.08,2.9h-2.44L358,110H358a3.22,3.22,0,0,1-2.82,1.47c-1.83,0-3.18-1.14-3.18-3.93v-5.31h2.82v4.86c0,1.32.43,2.11,1.41,2.11a1.5,1.5,0,0,0,1.4-1,1.45,1.45,0,0,0,.09-.61v-5.38h2.83Z"/><path d="M362.75,98.19h2.81v13.12h-2.81Z"/><path d="M371,99.69v2.58h2v2.07h-2v3.28c0,1.09.26,1.58,1.11,1.58a4.54,4.54,0,0,0,.84-.07v2.12a5.39,5.39,0,0,1-1.83.25,2.92,2.92,0,0,1-2.1-.78,3.75,3.75,0,0,1-.78-2.68v-3.7H367v-2.07h1.2v-2Z"/><path d="M379.75,111.31l-.17-.9h-.05a3.26,3.26,0,0,1-2.59,1.1,2.77,2.77,0,0,1-2.92-2.77c0-2.34,2.11-3.47,5.3-3.45v-.13c0-.48-.26-1.17-1.64-1.17a5.11,5.11,0,0,0-2.5.69l-.51-1.81a7.29,7.29,0,0,1,3.51-.8c3,0,4,1.78,4,3.9v3.14a14.3,14.3,0,0,0,.13,2.2Zm-.33-4.27c-1.48,0-2.63.34-2.63,1.42a1,1,0,0,0,1.11,1.08,1.54,1.54,0,0,0,1.46-1,1.86,1.86,0,0,0,.06-.48Z"/><path d="M382.5,113a2.45,2.45,0,0,0,1.66-.59c.41-.42.56-1.14.56-2.94v-7.17h2.82v7.84c0,2-.44,3.18-1.27,4a5.12,5.12,0,0,1-3.49,1.11Zm5.12-13.21a1.41,1.41,0,0,1-1.52,1.41,1.42,1.42,0,1,1,1.52-1.41Z"/><path d="M389.74,105.16c0-1.13,0-2.09-.07-2.89h2.44l.13,1.24h.05a3.31,3.31,0,0,1,2.79-1.44c1.85,0,3.23,1.22,3.23,3.88v5.36h-2.8v-5c0-1.16-.41-2-1.43-2a1.5,1.5,0,0,0-1.42,1.06,2,2,0,0,0-.11.7v5.21h-2.81Z"/><path d="M413.05,98.19v10.42c0,1,0,2.09.08,2.7h-2.5L410.5,110h0a3.15,3.15,0,0,1-2.83,1.53c-2.14,0-3.86-1.83-3.86-4.63,0-3,1.88-4.81,4.05-4.81a2.76,2.76,0,0,1,2.38,1h0v-4.9Zm-2.8,7.91a4.21,4.21,0,0,0,0-.5,1.7,1.7,0,0,0-1.65-1.39c-1.27,0-1.94,1.15-1.94,2.57s.76,2.5,1.93,2.5a1.64,1.64,0,0,0,1.62-1.35,2.23,2.23,0,0,0,.08-.65Z"/><path d="M424.23,106.69a4.53,4.53,0,0,1-4.77,4.82,4.42,4.42,0,0,1-4.67-4.65,4.51,4.51,0,0,1,4.82-4.79A4.39,4.39,0,0,1,424.23,106.69Zm-6.54.09c0,1.56.64,2.72,1.85,2.72s1.79-1.09,1.79-2.72c0-1.35-.52-2.71-1.79-2.71S417.69,105.45,417.69,106.78Z"/><path d="M426,105.16c0-1.13,0-2.09-.07-2.89h2.44l.13,1.24h.05a3.32,3.32,0,0,1,2.79-1.44c1.85,0,3.24,1.22,3.24,3.88v5.36h-2.81v-5c0-1.16-.41-2-1.42-2a1.51,1.51,0,0,0-1.43,1.06,2,2,0,0,0-.11.7v5.21H426Z"/><path d="M441.93,111.31l-.17-.9h-.06a3.24,3.24,0,0,1-2.58,1.1,2.77,2.77,0,0,1-2.92-2.77c0-2.34,2.1-3.47,5.3-3.45v-.13c0-.48-.26-1.17-1.64-1.17a5.08,5.08,0,0,0-2.5.69l-.52-1.81a7.36,7.36,0,0,1,3.51-.8c3,0,4,1.78,4,3.9v3.14a13.13,13.13,0,0,0,.13,2.2Zm-.34-4.27c-1.48,0-2.62.34-2.62,1.42a1,1,0,0,0,1.11,1.08,1.55,1.55,0,0,0,1.46-1,2.44,2.44,0,0,0,0-.48Z"/><path d="M453.32,111.09a6.87,6.87,0,0,1-2.51.41c-2.92,0-4.79-1.78-4.79-4.62,0-2.65,1.81-4.81,5.18-4.81a6.53,6.53,0,0,1,2.14.35l-.44,2.09a3.78,3.78,0,0,0-1.57-.28,2.54,2.54,0,0,0,.05,5.07A4.23,4.23,0,0,0,453,109Z"/><path d="M463.59,106.69a4.52,4.52,0,0,1-4.76,4.82,4.42,4.42,0,0,1-4.68-4.65,4.51,4.51,0,0,1,4.82-4.79A4.39,4.39,0,0,1,463.59,106.69Zm-6.54.09c0,1.56.65,2.72,1.85,2.72s1.79-1.09,1.79-2.72c0-1.35-.51-2.71-1.79-2.71S457.05,105.45,457.05,106.78Z"/><path d="M463.46,113a2.45,2.45,0,0,0,1.66-.59c.41-.42.56-1.14.56-2.94v-7.17h2.83v7.84c0,2-.45,3.18-1.28,4a5.12,5.12,0,0,1-3.49,1.11Zm5.12-13.21a1.49,1.49,0,1,1-1.48-1.42A1.4,1.4,0,0,1,468.58,99.76Z"/><path d="M470.7,105.16c0-1.13,0-2.09-.07-2.89h2.44l.13,1.24h.05a3.32,3.32,0,0,1,2.79-1.44c1.85,0,3.24,1.22,3.24,3.88v5.36h-2.81v-5c0-1.16-.41-2-1.43-2a1.51,1.51,0,0,0-1.42,1.06,2,2,0,0,0-.11.7v5.21H470.7Z"/><path d="M481.32,109.81A1.63,1.63,0,0,1,483,108.1a1.71,1.71,0,0,1,0,3.41A1.62,1.62,0,0,1,481.32,109.81Z"/></g></svg>