<svg xmlns="http://www.w3.org/2000/svg" viewBox="0 0 200 60"><defs><style>.a{fill:#ffc920;}</style></defs><title>hivefivelogo-02-10-2018</title><path class="a" d="M32.41,27.69V31.2c0,1.32,0,3.12,0,4.59l1.5.3V37.5H26.05V36.09l1.56-.33c0-1.47,0-3.27,0-4.56V28.05c0-1.95-.39-2.61-1.62-2.61a4.27,4.27,0,0,0-2.67,1.38V31.2c0,1.26,0,3.12,0,4.59l1.41.3V37.5H16.9V36.09l1.62-.36c0-1.44,0-3.27,0-4.53V18.63l-1.86-.3V17.07l6.21-1.35.48.3-.12,4.2v4.83c1.62-1.86,3-2.52,4.77-2.52C30.67,22.53,32.41,24.24,32.41,27.69Z"/><path class="a" d="M35.47,37.5V36.09l1.62-.36c0-1.44,0-3.27,0-4.53V29.76c0-1.65,0-2.58-.09-3.78l-1.86-.27V24.54l6.3-2,.51.33-.09,4.35v4c0,1.26,0,3.12,0,4.59l1.5.3V37.5Zm1.44-19.56a2.56,2.56,0,1,1,2.55,2.37A2.42,2.42,0,0,1,36.91,17.94Z"/><path class="a" d="M50.47,37.56l-5.4-12.93-1.47-.3V23h8.52v1.32l-1.89.36,2.82,7.68,2.61-7.68-1.89-.36V23h5.67v1.32l-1.74.33-5,12.9Z"/><path class="a" d="M73.59,28.89a6.27,6.27,0,0,1-.18,1.59H64.74c.21,3.18,1.92,4.62,4,4.62a4.81,4.81,0,0,0,3.63-1.62l1,1C72.21,36.81,70.05,38,67.14,38c-4.38,0-7.47-2.85-7.47-7.68a7.5,7.5,0,0,1,7.71-7.74C71.34,22.53,73.59,25.26,73.59,28.89Zm-8.85,0h2.55c1.44,0,1.83-.54,1.83-1.89,0-2-.93-2.94-2-2.94S64.86,25.26,64.74,28.92Z"/><path class="a" d="M77.43,27.09c0-2.46,0-5-.06-7.44l-2.25-.24V17.79H90.63L90.84,23H88.35l-.6-3.48H82.53c-.06,2.28-.06,4.62-.06,7H85.8l.36-2.34H87.9v6.75H86.16l-.39-2.64h-3.3c0,2.67,0,5.07.06,7.41l2.67.27V37.5H75.12V35.88l2.25-.24c.06-2.43.06-4.92.06-7.44Z"/><path class="a" d="M91.71,37.5V36.09l1.62-.36c0-1.44,0-3.27,0-4.53V29.76c0-1.65,0-2.58-.09-3.78l-1.86-.27V24.54l6.29-2,.52.33-.09,4.35v4c0,1.26,0,3.12,0,4.59l1.5.3V37.5Zm1.44-19.56a2.56,2.56,0,1,1,2.55,2.37A2.42,2.42,0,0,1,93.15,17.94Z"/><path class="a" d="M106.7,37.56l-5.4-12.93-1.47-.3V23h8.52v1.32l-1.89.36,2.82,7.68,2.61-7.68L110,24.33V23h5.67v1.32l-1.74.33-5,12.9Z"/><path class="a" d="M129.83,28.89a6.27,6.27,0,0,1-.18,1.59H121c.21,3.18,1.92,4.62,4,4.62a4.81,4.81,0,0,0,3.63-1.62l1.05,1c-1.23,2.37-3.39,3.51-6.3,3.51-4.38,0-7.47-2.85-7.47-7.68a7.5,7.5,0,0,1,7.71-7.74C127.58,22.53,129.83,25.26,129.83,28.89Zm-8.85,0h2.55c1.44,0,1.83-.54,1.83-1.89,0-2-.93-2.94-2-2.94S121.1,25.26,121,28.92Z"/><path class="a" d="M133.28,15h2.94V45h-2.94Z"/><path class="a" d="M145.75,15.72l.48.3-.12,4.2v11c0,1.53,0,3,.06,4.56l1.65.33V37.5H139.6V36.09l1.65-.36c0-1.5.06-3,.06-4.53V18.63l-1.86-.3V17.07Z"/><path class="a" d="M149.41,37.5V36.09l1.62-.36c0-1.44,0-3.27,0-4.53V29.76c0-1.65,0-2.58-.09-3.78l-1.86-.27V24.54l6.3-2,.51.33-.09,4.35v4c0,1.26,0,3.12,0,4.59l1.5.3V37.5Zm1.44-19.56a2.56,2.56,0,1,1,2.55,2.37A2.42,2.42,0,0,1,150.85,17.94Z"/><path class="a" d="M160.6,25.05h-1.95V23.28l2-.24c.36-3,1.35-4.56,2.49-5.64a7,7,0,0,1,5-2c1.68,0,3.21.54,3.6,2.13a2,2,0,0,1-2.16,2c-1,0-1.86-.63-2.7-2.13l-.24-.36a3.14,3.14,0,0,0-.51.63c-.69,1.2-.93,2.85-.84,5.31h3.21v2h-3.15V31.2c0,1.47,0,2.94,0,4.41l2.31.48V37.5h-8.82V36.09l1.65-.33c0-1.53.06-3,.06-4.56Z"/><path class="a" d="M183.31,28.89a6.27,6.27,0,0,1-.18,1.59h-8.67c.21,3.18,1.92,4.62,4,4.62a4.81,4.81,0,0,0,3.63-1.62l1,1c-1.23,2.37-3.39,3.51-6.3,3.51-4.38,0-7.47-2.85-7.47-7.68a7.5,7.5,0,0,1,7.71-7.74C181.06,22.53,183.31,25.26,183.31,28.89Zm-8.85,0H177c1.44,0,1.83-.54,1.83-1.89,0-2-.93-2.94-2-2.94S174.58,25.26,174.46,28.92Z"/></svg>